<?xml version="1.0" encoding="utf-8"?>
<!-- Generator: Adobe Illustrator 23.1.0, SVG Export Plug-In . SVG Version: 6.00 Build 0)  -->
<svg version="1.1" id="暂无内容" xmlns="http://www.w3.org/2000/svg" xmlns:xlink="http://www.w3.org/1999/xlink" x="0px"
	 y="0px" viewBox="0 0 800 800" style="enable-background:new 0 0 800 800;" xml:space="preserve">
<style type="text/css">
	.st0{fill:url(#SVGID_1_);}
	.st1{fill:url(#SVGID_2_);}
	.st2{fill:url(#SVGID_3_);}
	.st3{fill:url(#SVGID_4_);}
	.st4{fill:url(#SVGID_5_);}
	.st5{fill:url(#SVGID_6_);}
	.st6{fill:url(#SVGID_7_);}
	.st7{fill:url(#SVGID_8_);}
	.st8{fill:url(#SVGID_9_);}
	.st9{fill:url(#SVGID_10_);}
	.st10{fill:url(#SVGID_11_);}
	.st11{fill:url(#SVGID_12_);}
	.st12{fill:#F4AFAE;}
	.st13{fill:url(#SVGID_13_);}
	.st14{fill:url(#SVGID_14_);}
	.st15{fill:url(#SVGID_15_);}
	.st16{fill:#FFFFFF;}
	.st17{fill:#FC7070;}
	.st18{fill:#FADAD4;}
	.st19{fill:url(#SVGID_16_);}
	.st20{fill:none;stroke:#2EA7E0;stroke-miterlimit:10;}
	.st21{fill:url(#SVGID_17_);}
	.st22{fill:#FFDCEE;}
	.st23{fill:url(#SVGID_18_);}
	.st24{fill:#4C2C00;}
	.st25{fill:#F48484;}
	.st26{fill:#F7B7B7;}
	.st27{fill:url(#SVGID_19_);}
	.st28{fill:url(#SVGID_20_);}
	.st29{fill:url(#SVGID_21_);}
	.st30{fill:url(#SVGID_22_);}
	.st31{fill:url(#SVGID_23_);}
	.st32{fill:url(#SVGID_24_);}
	.st33{fill:url(#SVGID_25_);}
	.st34{fill:url(#SVGID_26_);}
	.st35{fill:url(#SVGID_27_);}
	.st36{fill:url(#SVGID_28_);}
	.st37{fill:url(#SVGID_29_);}
	.st38{fill:url(#SVGID_30_);}
	.st39{fill:url(#SVGID_31_);}
	.st40{fill:url(#SVGID_32_);}
	.st41{fill:url(#SVGID_33_);}
	.st42{fill:url(#SVGID_34_);}
	.st43{fill:url(#SVGID_35_);}
	.st44{fill:url(#SVGID_36_);}
	.st45{fill:url(#SVGID_37_);}
	.st46{fill:url(#SVGID_38_);}
	.st47{fill:url(#SVGID_39_);}
	.st48{fill:url(#SVGID_40_);}
	.st49{fill:#F6F5F0;}
	.st50{fill:#F0EDE1;}
	.st51{fill:url(#SVGID_41_);}
	.st52{fill:url(#SVGID_42_);}
	.st53{fill:url(#SVGID_43_);}
	.st54{fill:url(#SVGID_44_);}
	.st55{fill:url(#SVGID_45_);}
	.st56{fill:url(#SVGID_46_);}
	.st57{fill:url(#SVGID_47_);}
	.st58{fill:url(#SVGID_48_);}
	.st59{fill:url(#SVGID_49_);}
	.st60{fill:url(#SVGID_50_);}
	.st61{fill:url(#SVGID_51_);}
	.st62{fill:url(#SVGID_52_);}
	.st63{fill:url(#SVGID_53_);}
	.st64{fill:url(#SVGID_54_);}
	.st65{fill:url(#SVGID_55_);}
	.st66{fill:url(#SVGID_56_);}
	.st67{fill:url(#SVGID_57_);}
	.st68{fill:url(#SVGID_58_);}
	.st69{fill:url(#SVGID_59_);}
	.st70{fill:url(#SVGID_60_);}
	.st71{fill:#F79C9B;}
	.st72{fill:url(#SVGID_61_);}
	.st73{fill:url(#SVGID_62_);}
	.st74{fill:url(#SVGID_63_);}
	.st75{fill:url(#SVGID_64_);}
	.st76{fill:url(#SVGID_65_);}
	.st77{fill:url(#SVGID_66_);}
	.st78{fill:url(#SVGID_67_);}
	.st79{fill:url(#SVGID_68_);}
	.st80{fill:url(#SVGID_69_);}
	.st81{fill:url(#SVGID_70_);}
	.st82{fill:url(#SVGID_71_);}
	.st83{fill:url(#SVGID_72_);}
	.st84{fill:url(#SVGID_73_);}
	.st85{fill:url(#SVGID_74_);}
	.st86{fill:url(#SVGID_75_);}
	.st87{fill:#EF6563;}
	.st88{fill:url(#SVGID_76_);}
	.st89{fill:#F18C8A;}
	.st90{fill:#F9C3C0;}
	.st91{fill:url(#SVGID_77_);}
	.st92{fill:url(#SVGID_78_);}
	.st93{fill:url(#SVGID_79_);}
	.st94{fill:url(#SVGID_80_);}
	.st95{fill:url(#SVGID_81_);}
	.st96{fill:url(#SVGID_82_);}
	.st97{fill:url(#SVGID_83_);}
	.st98{fill:url(#SVGID_84_);}
	.st99{fill:url(#SVGID_85_);}
	.st100{fill:url(#SVGID_86_);}
	.st101{fill:url(#SVGID_87_);}
	.st102{fill:url(#SVGID_88_);}
	.st103{fill:url(#SVGID_89_);}
	.st104{fill:url(#SVGID_90_);}
	.st105{fill:url(#SVGID_91_);}
	.st106{fill:url(#SVGID_92_);}
	.st107{fill:url(#SVGID_93_);}
	.st108{fill:url(#SVGID_94_);}
	.st109{fill:url(#SVGID_95_);}
	.st110{fill:url(#SVGID_96_);}
	.st111{fill:url(#SVGID_97_);}
	.st112{fill:url(#SVGID_98_);}
	.st113{fill:url(#SVGID_99_);}
	.st114{fill:url(#SVGID_100_);}
	.st115{fill:url(#SVGID_101_);}
	.st116{fill:url(#SVGID_102_);}
	.st117{fill:url(#SVGID_103_);}
	.st118{fill:#F4BAD9;}
	.st119{fill:url(#SVGID_104_);}
	.st120{fill:url(#SVGID_105_);}
	.st121{fill:url(#SVGID_106_);}
	.st122{fill:url(#SVGID_107_);}
	.st123{fill:url(#SVGID_108_);}
	.st124{fill:url(#SVGID_109_);}
	.st125{fill:url(#SVGID_110_);}
	.st126{fill:url(#SVGID_111_);}
	.st127{fill:url(#SVGID_112_);}
	.st128{fill:url(#SVGID_113_);}
	.st129{fill:url(#SVGID_114_);}
	.st130{fill:url(#SVGID_115_);}
	.st131{fill:url(#SVGID_116_);}
	.st132{fill:url(#SVGID_117_);}
	.st133{fill:url(#SVGID_118_);}
	.st134{fill:#F37170;}
	.st135{fill:#F5AEAD;}
	.st136{fill:url(#SVGID_119_);}
	.st137{fill:url(#SVGID_120_);}
	.st138{fill:url(#SVGID_121_);}
	.st139{fill:url(#SVGID_122_);}
	.st140{fill:url(#SVGID_123_);}
	.st141{fill:url(#SVGID_124_);}
	.st142{fill:url(#SVGID_125_);}
	.st143{fill:url(#SVGID_126_);}
	.st144{fill:url(#SVGID_127_);}
	.st145{fill:url(#SVGID_128_);}
	.st146{fill:url(#SVGID_129_);}
	.st147{fill:url(#SVGID_130_);}
	.st148{fill:url(#SVGID_131_);}
	.st149{fill:url(#SVGID_132_);}
	.st150{fill:url(#SVGID_133_);}
	.st151{fill:url(#SVGID_134_);}
	.st152{fill:url(#SVGID_135_);}
	.st153{fill:url(#SVGID_136_);}
	.st154{fill:url(#SVGID_137_);}
	.st155{fill:url(#SVGID_138_);}
	.st156{fill:url(#SVGID_139_);}
	.st157{fill:#F68382;}
	.st158{fill:#F7F8F8;}
	.st159{fill:#E86867;}
	.st160{fill:#B6DFFF;}
	.st161{fill:none;stroke:#4C2C00;stroke-width:6;stroke-linecap:round;stroke-miterlimit:10;}
	.st162{fill:url(#SVGID_140_);}
	.st163{fill:url(#SVGID_141_);}
	.st164{fill:url(#SVGID_142_);}
	.st165{fill:url(#SVGID_143_);}
	.st166{fill:url(#SVGID_144_);}
	.st167{fill:url(#SVGID_145_);}
	.st168{fill:url(#SVGID_146_);}
	.st169{fill:url(#SVGID_147_);}
	.st170{fill:url(#SVGID_148_);}
	.st171{fill:url(#SVGID_149_);}
	.st172{fill:url(#SVGID_150_);}
	.st173{fill:url(#SVGID_151_);}
	.st174{fill:url(#SVGID_152_);}
	.st175{fill:url(#SVGID_153_);}
	.st176{fill:url(#SVGID_154_);}
	.st177{fill:url(#SVGID_155_);}
	.st178{fill:url(#SVGID_156_);}
	.st179{fill:#F79B9A;}
	.st180{fill:url(#SVGID_157_);}
	.st181{fill:url(#SVGID_158_);}
	.st182{fill:url(#SVGID_159_);}
	.st183{fill:url(#SVGID_160_);}
	.st184{fill:url(#SVGID_161_);}
	.st185{fill:url(#SVGID_162_);}
	.st186{fill:url(#SVGID_163_);}
	.st187{fill:url(#SVGID_164_);}
	.st188{fill:url(#SVGID_165_);}
	.st189{fill:url(#SVGID_166_);}
	.st190{fill:url(#SVGID_167_);}
	.st191{fill:url(#SVGID_168_);}
	.st192{fill:url(#SVGID_169_);}
	.st193{fill:url(#SVGID_170_);}
	.st194{fill:url(#SVGID_171_);}
	.st195{fill:url(#SVGID_172_);}
	.st196{fill:url(#SVGID_173_);}
	.st197{fill:url(#SVGID_174_);}
	.st198{fill:url(#SVGID_175_);}
	.st199{fill:url(#SVGID_176_);}
	.st200{fill:url(#SVGID_177_);}
	.st201{fill:url(#SVGID_178_);}
	.st202{fill:url(#SVGID_179_);}
	.st203{fill:url(#SVGID_180_);}
	.st204{fill:url(#SVGID_181_);}
	.st205{fill:url(#SVGID_182_);}
	.st206{fill:url(#SVGID_183_);}
	.st207{fill:url(#SVGID_184_);}
	.st208{fill:url(#SVGID_185_);}
	.st209{fill:url(#SVGID_186_);}
	.st210{fill:url(#SVGID_187_);}
	.st211{fill:#EA6E6D;}
	.st212{fill:#F47E7D;}
	.st213{fill:#F48E8D;}
	.st214{fill:url(#SVGID_188_);}
	.st215{fill:url(#SVGID_189_);}
	.st216{fill:url(#SVGID_190_);}
	.st217{fill:url(#SVGID_191_);}
	.st218{fill:url(#SVGID_192_);}
	.st219{fill:url(#SVGID_193_);}
	.st220{fill:url(#SVGID_194_);}
	.st221{fill:url(#SVGID_195_);}
	.st222{fill:url(#SVGID_196_);}
	.st223{fill:url(#SVGID_197_);}
	.st224{fill:url(#SVGID_198_);}
	.st225{fill:url(#SVGID_199_);}
	.st226{fill:url(#SVGID_200_);}
	.st227{fill:url(#SVGID_201_);}
	.st228{fill:url(#SVGID_202_);}
	.st229{fill:url(#SVGID_203_);}
	.st230{fill:url(#SVGID_204_);}
	.st231{fill:url(#SVGID_205_);}
	.st232{fill:url(#SVGID_206_);}
	.st233{fill:url(#SVGID_207_);}
	.st234{fill:url(#SVGID_208_);}
	.st235{fill:url(#SVGID_209_);}
	.st236{fill:url(#SVGID_210_);}
	.st237{fill:url(#SVGID_211_);}
	.st238{fill:url(#SVGID_212_);}
	.st239{fill:url(#SVGID_213_);}
	.st240{fill:url(#SVGID_214_);}
	.st241{fill:url(#SVGID_215_);}
	.st242{fill:url(#SVGID_216_);}
	.st243{fill:url(#SVGID_217_);}
	.st244{fill:url(#SVGID_218_);}
	.st245{fill:url(#SVGID_219_);}
	.st246{fill:url(#SVGID_220_);}
	.st247{fill:url(#SVGID_221_);}
	.st248{fill:url(#SVGID_222_);}
	.st249{fill:url(#SVGID_223_);}
	.st250{fill:url(#SVGID_224_);}
	.st251{fill:url(#SVGID_225_);}
	.st252{fill:url(#SVGID_226_);}
</style>
<g>
	<g>
		<g>
			<g>
				<linearGradient id="SVGID_1_" gradientUnits="userSpaceOnUse" x1="222.7742" y1="158.1725" x2="331.4814" y2="158.1725">
					<stop  offset="0" style="stop-color:#FFF2F0"/>
					<stop  offset="1" style="stop-color:#FADAD4"/>
				</linearGradient>
				<path class="st0" d="M233.75,158.47l64.81,37.42c10.5,6.06,23.92,2.46,29.97-8.03l0,0c6.06-10.5,2.46-23.92-8.03-29.97
					l-64.81-37.42c-10.5-6.06-23.92-2.46-29.97,8.03l0,0C219.66,138.99,223.25,152.41,233.75,158.47z"/>
				<linearGradient id="SVGID_2_" gradientUnits="userSpaceOnUse" x1="633.1551" y1="528.0729" x2="741.8622" y2="528.0729">
					<stop  offset="0" style="stop-color:#FFF2F0"/>
					<stop  offset="1" style="stop-color:#FADAD4"/>
				</linearGradient>
				<path class="st1" d="M730.89,527.78l-64.81-37.42c-10.5-6.06-23.92-2.46-29.97,8.03l0,0c-6.06,10.5-2.46,23.92,8.03,29.97
					l64.81,37.42c10.5,6.06,23.92,2.46,29.97-8.03C744.98,547.26,741.38,533.84,730.89,527.78z"/>
				<linearGradient id="SVGID_3_" gradientUnits="userSpaceOnUse" x1="32.6443" y1="266.0763" x2="116.4912" y2="266.0763">
					<stop  offset="0" style="stop-color:#FFF2F0"/>
					<stop  offset="1" style="stop-color:#FADAD4"/>
				</linearGradient>
				<path class="st2" d="M40.94,265.83l50.65,29.24c7.94,4.58,18.09,1.86,22.67-6.07l0,0c4.58-7.94,1.86-18.09-6.07-22.67
					l-50.65-29.24c-7.94-4.58-18.09-1.86-22.67,6.07C30.29,251.09,33.01,261.24,40.94,265.83z"/>
				<linearGradient id="SVGID_4_" gradientUnits="userSpaceOnUse" x1="480.3866" y1="117.5159" x2="564.2335" y2="117.5159">
					<stop  offset="0" style="stop-color:#FFF2F0"/>
					<stop  offset="1" style="stop-color:#FADAD4"/>
				</linearGradient>
				<path class="st3" d="M488.69,117.26l50.65,29.24c7.94,4.58,18.09,1.86,22.67-6.07l0,0c4.58-7.94,1.86-18.09-6.07-22.67
					l-50.65-29.24c-7.94-4.58-18.09-1.86-22.67,6.07C478.03,102.53,480.75,112.68,488.69,117.26z"/>
				<linearGradient id="SVGID_5_" gradientUnits="userSpaceOnUse" x1="687.5087" y1="367.0043" x2="771.3557" y2="367.0043">
					<stop  offset="0" style="stop-color:#FFF2F0"/>
					<stop  offset="1" style="stop-color:#FADAD4"/>
				</linearGradient>
				<path class="st4" d="M763.06,367.26l-50.65-29.24c-7.94-4.58-18.09-1.86-22.67,6.07c-4.58,7.94-1.86,18.09,6.07,22.67
					L746.46,396c7.94,4.58,18.09,1.86,22.67-6.07h0C773.71,381.99,770.99,371.84,763.06,367.26z"/>
				<linearGradient id="SVGID_6_" gradientUnits="userSpaceOnUse" x1="645.438" y1="437.0349" x2="721.799" y2="437.0349">
					<stop  offset="0" style="stop-color:#FFF2F0"/>
					<stop  offset="1" style="stop-color:#FADAD4"/>
				</linearGradient>
				<path class="st5" d="M646.02,415.33L646.02,415.33c-1.19,2.06-0.48,4.7,1.58,5.89l67.74,39.11c2.06,1.19,4.7,0.48,5.89-1.58
					c1.19-2.06,0.48-4.7-1.58-5.89l-67.74-39.11C649.84,412.56,647.21,413.26,646.02,415.33z"/>
				<linearGradient id="SVGID_7_" gradientUnits="userSpaceOnUse" x1="150.4906" y1="240.0689" x2="226.8515" y2="240.0689">
					<stop  offset="0" style="stop-color:#FFF2F0"/>
					<stop  offset="1" style="stop-color:#FADAD4"/>
				</linearGradient>
				<path class="st6" d="M152.65,224.25l67.74,39.11c2.06,1.19,4.7,0.48,5.89-1.58c1.19-2.06,0.48-4.7-1.58-5.89l-67.74-39.11
					c-2.06-1.19-4.7-0.48-5.89,1.58C149.88,220.42,150.58,223.06,152.65,224.25z"/>
				<linearGradient id="SVGID_8_" gradientUnits="userSpaceOnUse" x1="35.2663" y1="487.4163" x2="63.5865" y2="487.4163">
					<stop  offset="0" style="stop-color:#FFF2F0"/>
					<stop  offset="1" style="stop-color:#FADAD4"/>
				</linearGradient>
				<path class="st7" d="M61.95,490.86l-8.04-4.64l4.64-8.04c0.91-1.57,0.37-3.57-1.2-4.48c-1.57-0.91-3.57-0.37-4.48,1.2
					l-4.64,8.04l-8.04-4.64c-1.57-0.91-3.57-0.37-4.48,1.2s-0.37,3.57,1.2,4.48l8.04,4.64l-4.64,8.04c-0.91,1.57-0.37,3.57,1.2,4.48
					s3.57,0.37,4.48-1.2l4.64-8.04l8.04,4.64c1.57,0.91,3.57,0.37,4.48-1.2C64.05,493.77,63.51,491.76,61.95,490.86z"/>
				<linearGradient id="SVGID_9_" gradientUnits="userSpaceOnUse" x1="389.7684" y1="158.1723" x2="466.1292" y2="158.1723">
					<stop  offset="0" style="stop-color:#FFF2F0"/>
					<stop  offset="1" style="stop-color:#FADAD4"/>
				</linearGradient>
				<path class="st8" d="M391.92,142.35l67.74,39.11c2.06,1.19,4.7,0.48,5.89-1.58c1.19-2.06,0.48-4.7-1.58-5.89l-67.74-39.11
					c-2.06-1.19-4.7-0.48-5.89,1.58l0,0C389.16,138.53,389.86,141.16,391.92,142.35z"/>
				<linearGradient id="SVGID_10_" gradientUnits="userSpaceOnUse" x1="626.1509" y1="195.9296" x2="647.9165" y2="195.9296">
					<stop  offset="0" style="stop-color:#FFF2F0"/>
					<stop  offset="1" style="stop-color:#FADAD4"/>
				</linearGradient>
				<path class="st9" d="M637.03,206.81c6,0,10.88-4.88,10.88-10.88c0-6-4.88-10.88-10.88-10.88s-10.88,4.88-10.88,10.88
					C626.15,201.93,631.03,206.81,637.03,206.81z M637.03,188.05c4.35,0,7.88,3.54,7.88,7.88s-3.54,7.88-7.88,7.88
					s-7.88-3.54-7.88-7.88S632.69,188.05,637.03,188.05z"/>
				<linearGradient id="SVGID_11_" gradientUnits="userSpaceOnUse" x1="96.1617" y1="134.3062" x2="116.4912" y2="134.3062">
					<stop  offset="0" style="stop-color:#FFF2F0"/>
					<stop  offset="1" style="stop-color:#FADAD4"/>
				</linearGradient>
				<path class="st10" d="M106.33,144.47c5.6,0,10.17-4.56,10.17-10.16s-4.56-10.16-10.17-10.16c-5.6,0-10.16,4.56-10.16,10.16
					S100.72,144.47,106.33,144.47z M106.33,127.14c3.95,0,7.17,3.21,7.17,7.16s-3.21,7.16-7.17,7.16s-7.16-3.21-7.16-7.16
					S102.38,127.14,106.33,127.14z"/>
				<linearGradient id="SVGID_12_" gradientUnits="userSpaceOnUse" x1="712.4161" y1="253.7186" x2="731.1818" y2="253.7186">
					<stop  offset="0" style="stop-color:#FFF2F0"/>
					<stop  offset="1" style="stop-color:#FADAD4"/>
				</linearGradient>
				<path class="st11" d="M721.8,263.1c5.18,0,9.38-4.2,9.38-9.38c0-5.18-4.2-9.38-9.38-9.38s-9.38,4.2-9.38,9.38
					C712.42,258.9,716.62,263.1,721.8,263.1z"/>
				<g>
					<path class="st12" d="M699.08,600.37H77.63c-2.76,0-5,2.24-5,5s2.24,5,5,5h621.45c2.76,0,5-2.24,5-5
						S701.84,600.37,699.08,600.37z"/>
				</g>
				<g>
					<path class="st12" d="M735.84,600.37h-15.06c-2.76,0-5,2.24-5,5s2.24,5,5,5h15.06c2.76,0,5-2.24,5-5
						S738.6,600.37,735.84,600.37z"/>
				</g>
				<g>
					<path class="st12" d="M477.71,635.86H324.52c-2.76,0-5,2.24-5,5c0,2.76,2.24,5,5,5h153.19c2.76,0,5-2.24,5-5
						C482.71,638.09,480.48,635.86,477.71,635.86z"/>
				</g>
				<g>
					<path class="st12" d="M509.44,636.43h-14.87c-2.76,0-5,2.24-5,5s2.24,5,5,5h14.87c2.76,0,5-2.24,5-5
						S512.2,636.43,509.44,636.43z"/>
				</g>
				<g>
					<path class="st12" d="M681.46,636.43H527.31c-2.76,0-5,2.24-5,5s2.24,5,5,5h154.15c2.76,0,5-2.24,5-5
						S684.22,636.43,681.46,636.43z"/>
				</g>
				<g>
					<path class="st12" d="M201.2,669.81h-15.32c-2.76,0-5,2.24-5,5s2.24,5,5,5h15.32c2.76,0,5-2.24,5-5S203.97,669.81,201.2,669.81
						z"/>
				</g>
				<g>
					<path class="st12" d="M402.67,669.81H301.24c-2.65-3.92-6.67-8.17-15.78-8.17c-7.07,0-12.19,4.35-15.01,8.17h-53.67
						c-2.76,0-5,2.24-5,5s2.24,5,5,5h56.43c1.89,0,3.63-1.07,4.47-2.76c0.03-0.05,2.84-5.41,7.78-5.41c5.17,0,6.32,1.83,8.59,5.48
						l0.21,0.34c0.91,1.46,2.52,2.35,4.24,2.35h104.17c2.76,0,5-2.24,5-5S405.43,669.81,402.67,669.81z"/>
				</g>
				<linearGradient id="SVGID_13_" gradientUnits="userSpaceOnUse" x1="81.0073" y1="401.0617" x2="198.5464" y2="401.0617">
					<stop  offset="0" style="stop-color:#FFF2F0"/>
					<stop  offset="1" style="stop-color:#FADAD4"/>
				</linearGradient>
				<path class="st13" d="M149.41,444.44l-52.02-30.03c-15.67-9.04-21.03-29.08-11.99-44.74l0,0c9.04-15.67,29.08-21.03,44.74-11.99
					l52.02,30.03c15.67,9.04,21.03,29.08,11.99,44.74l0,0C185.11,448.12,165.08,453.49,149.41,444.44z"/>
			</g>
		</g>
		<linearGradient id="SVGID_14_" gradientUnits="userSpaceOnUse" x1="398.2041" y1="163.6638" x2="398.2041" y2="591.8342">
			<stop  offset="0.2961" style="stop-color:#FBEAE6"/>
			<stop  offset="1" style="stop-color:#F9C8C5"/>
		</linearGradient>
		<path class="st14" d="M637.8,591.83c26.32-42.79,41.51-93.15,41.51-147.06c0-155.25-125.86-281.11-281.11-281.11
			c-155.25,0-281.11,125.86-281.11,281.11c0,53.92,15.19,104.28,41.51,147.06H637.8z"/>
		<linearGradient id="SVGID_15_" gradientUnits="userSpaceOnUse" x1="398.2039" y1="227.2385" x2="398.2039" y2="591.8342">
			<stop  offset="0.2263" style="stop-color:#FFDBD9"/>
			<stop  offset="1" style="stop-color:#F79C9B"/>
		</linearGradient>
		<path class="st15" d="M558.48,591.83c35.55-38.72,57.26-90.36,57.26-147.06c0-120.14-97.39-217.53-217.53-217.53
			s-217.53,97.39-217.53,217.53c0,56.71,21.71,108.34,57.26,147.06H558.48z"/>
		<g>
			<path class="st16" d="M278.76,294.8c-5.79,0-10.5-4.71-10.5-10.5s4.71-10.5,10.5-10.5s10.5,4.71,10.5,10.5
				S284.55,294.8,278.76,294.8z M278.76,276.8c-4.14,0-7.5,3.36-7.5,7.5s3.36,7.5,7.5,7.5s7.5-3.36,7.5-7.5
				S282.89,276.8,278.76,276.8z"/>
		</g>
		<circle class="st16" cx="517.35" cy="362.81" r="4.6"/>
		<path class="st16" d="M589.04,446.44L581,441.8l4.64-8.04c0.91-1.57,0.37-3.57-1.2-4.48c-1.57-0.91-3.57-0.37-4.48,1.2l-4.64,8.04
			l-8.04-4.64c-1.57-0.91-3.57-0.37-4.48,1.2s-0.37,3.57,1.2,4.48l8.04,4.64l-4.64,8.04c-0.91,1.57-0.37,3.57,1.2,4.48
			s3.57,0.37,4.48-1.2l4.64-8.04l8.04,4.64c1.57,0.91,3.57,0.37,4.48-1.2C591.15,449.35,590.61,447.34,589.04,446.44z"/>
		<path class="st16" d="M238.46,460.6l-8.04-4.64l4.64-8.04c0.91-1.57,0.37-3.57-1.2-4.48c-1.57-0.91-3.57-0.37-4.48,1.2l-4.64,8.04
			l-8.04-4.64c-1.57-0.91-3.57-0.37-4.48,1.2s-0.37,3.57,1.2,4.48l8.04,4.64l-4.64,8.04c-0.91,1.57-0.37,3.57,1.2,4.48
			s3.57,0.37,4.48-1.2l4.64-8.04l8.04,4.64c1.57,0.91,3.57,0.37,4.48-1.2C240.56,463.51,240.03,461.5,238.46,460.6z"/>
	</g>
	<g>
		<path class="st157" d="M569.41,216.95h-40.09v16.34c0,15.23-12.35,27.57-27.57,27.57h-97.83c-15.23,0-27.57-12.35-27.57-27.57
			v-16.34h-35.7c-16.64,0-30.13,13.49-30.13,30.13v313.71c0,17.1,13.87,30.97,30.97,30.97h258.05V247.08
			C599.54,230.44,586.05,216.95,569.41,216.95z"/>
		<path class="st157" d="M487.39,237.12h-64.72c-9.1,0-16.47-7.37-16.47-16.47v0c0-9.1,7.37-16.47,16.47-16.47h64.72
			c9.1,0,16.47,7.37,16.47,16.47v0C503.86,229.75,496.49,237.12,487.39,237.12z"/>
		<path class="st158" d="M528.95,325.59H381.12c-6.24,0-11.3-5.06-11.3-11.3l0,0c0-6.24,5.06-11.3,11.3-11.3h147.83
			c6.24,0,11.3,5.06,11.3,11.3l0,0C540.24,320.53,535.19,325.59,528.95,325.59z"/>
		<path class="st158" d="M528.95,401.68H381.12c-6.24,0-11.3-5.06-11.3-11.3v0c0-6.24,5.06-11.3,11.3-11.3h147.83
			c6.24,0,11.3,5.06,11.3,11.3v0C540.24,396.62,535.19,401.68,528.95,401.68z"/>
		<path class="st158" d="M528.95,477.76H381.12c-6.24,0-11.3-5.06-11.3-11.3v0c0-6.24,5.06-11.3,11.3-11.3h147.83
			c6.24,0,11.3,5.06,11.3,11.3v0C540.24,472.7,535.19,477.76,528.95,477.76z"/>
		<path class="st179" d="M671.32,525.38H409.98c0,0-21.45,58.21-69.45,66.38c72,0,267.98,0,267.98,0S661.1,584.1,671.32,525.38z"/>
	</g>
	<g>
		<g>
			<path class="st49" d="M330.54,364.3c-1.23,0-2.42-0.51-3.29-1.44c-1.23-1.33-1.54-3.25-0.79-4.9l10.88-23.9l-15.41,6.63
				c-1.27,0.55-2.74-0.04-3.28-1.31s0.04-2.74,1.31-3.28l18.8-8.09c1.37-0.59,2.92-0.28,3.96,0.78c1.04,1.06,1.32,2.63,0.7,3.98
				l-11.9,26.15l21.41-7.75c1.3-0.47,2.73,0.2,3.2,1.5c0.47,1.3-0.2,2.73-1.5,3.2l-22.57,8.16
				C331.57,364.21,331.06,364.3,330.54,364.3z"/>
		</g>
		<g>
			<path class="st49" d="M322.07,413.66c-1.03,0-2.04-0.43-2.76-1.21c-1.03-1.12-1.29-2.73-0.66-4.11l5.98-13.13l-7.69,3.31
				c-1.27,0.54-2.74-0.04-3.28-1.31s0.04-2.74,1.31-3.28l12-5.17c1.22-0.52,2.61-0.25,3.53,0.7c0.93,0.95,1.17,2.34,0.62,3.55
				l-6.71,14.74l11.65-4.21c1.3-0.47,2.73,0.2,3.2,1.5c0.47,1.3-0.2,2.73-1.5,3.2l-14.41,5.21
				C322.93,413.59,322.5,413.66,322.07,413.66z"/>
		</g>
		<path class="st16" d="M391.35,490.21c0,0,22.72-30.2,56.17-7.95c7.91-9.67,23.49-12.26,29.11-0.11
			c5.62,12.15,0.26,21.6-4.85,23.89c5.11,6.38,5.87,20.68,1.53,27.57c9.7,7.4,16.09,23.49,6.89,38.81
			c-9.19,15.32-34.21,32.17-69.96,3.32c-14.81,7.4-57.7,23.49-70.98-12.26C361.23,530.55,391.35,490.21,391.35,490.21z"/>
		<path class="st49" d="M476.63,482.14c-1.06-2.3-2.48-4.07-4.14-5.37c0.03,0.05,7.86,16.06-4.38,24.57
			c2.3,12.45,11.78,24.22-13.31,45.67c-3.45,3.25-1.53,8.62,3.64,6.32s12.4-12.44,14.87-19.72c4.34-6.89,3.57-21.19-1.53-27.57
			C476.89,503.74,482.25,494.29,476.63,482.14z"/>
		<path class="st49" d="M391.35,490.21c0,0-2.26,3.02-5.98,8.08c-5.43,13.67-11.98,29.09-16.75,36.86c2.81,5.62,14.3,2.3,17.87,0
			c15.57-13.28,14.26-53.63,14.26-53.63l0,0C394.72,485.74,391.35,490.21,391.35,490.21z"/>
		<path class="st49" d="M479.5,560.61c-18.19,35.81-55.72,17.43-59.94,15.32s-4.21-3.83-2.49-6.13c10.15-13.6,0.77-29.87-2.87-34.47
			c-3.64-4.6-0.19-6.89,1.34-8.04s7.09-6.32,4.21-5.36s-10.91,4.6-11.87,5.55c-0.96,0.96,0.96,3.06,6.7,17.04
			c8.43,22.4-16.47,28.92-38.09,30.45c-21.61,0.92-28.9-14.57-30.95-20.78c-2.14,3.14-4.24,6.25-6.27,9.29
			c13.28,35.74,56.17,19.66,70.98,12.26c35.74,28.85,60.77,12,69.96-3.32c9.19-15.32,2.81-31.4-6.89-38.81
			C484.35,543.57,481.04,556.97,479.5,560.61z"/>
		<path class="st49" d="M295.86,418.72c0,0-7.66-58.21-42.13-108c-7.28-11.49-29.87-33.7-52.47-17.62
			c-22.6,16.09-10.34,50.17,8.43,75.06s49.02,55.91,49.02,55.91L295.86,418.72z"/>
		<path class="st22" d="M283.23,414.51c0,0-18-61.66-47.87-94.21c-6.8-7.47-13.86-7.85-19.91-3.96c-6.61,4.24-8.68,19.15,1.28,36.13
			c9.96,16.98,39.83,57.06,50.04,63.96C275.44,413.1,283.23,414.51,283.23,414.51z"/>
		<path class="st49" d="M223.96,484.42c0,0-58.25-7.34-108.23-41.53c-11.53-7.21-33.87-29.69-17.9-52.37s50.11-10.62,75.11,8.01
			c25,18.63,56.18,48.71,56.18,48.71L223.96,484.42z"/>
		<path class="st22" d="M219.68,471.8c0,0-61.76-17.66-94.47-47.36c-7.51-6.76-7.92-13.82-4.07-19.89
			c4.21-6.63,19.1-8.79,36.13,1.08c17.03,9.86,57.28,39.52,64.23,49.69C218.23,464.02,219.68,471.8,219.68,471.8z"/>
		<path class="st16" d="M237.65,428.29c-30.7,25.91-55.53,111.83,6.13,156.26c15.7,8.81,58.98,17.23,104.55-24.51
			c45.57-41.74,70.34-82.34,37.15-125.62C375.14,421.02,306.4,370.27,237.65,428.29z"/>
		
			<ellipse transform="matrix(0.7463 -0.6656 0.6656 0.7463 -300.8015 314.0818)" class="st22" cx="261.65" cy="551.67" rx="22.99" ry="9.94"/>
		
			<ellipse transform="matrix(0.7463 -0.6656 0.6656 0.7463 -221.8178 357.101)" class="st22" cx="357.58" cy="469.56" rx="22.99" ry="9.94"/>
		<g>
			<path class="st24" d="M284.56,484.49c-1.18-1.16-3.08-1.14-4.24,0.04c-1.16,1.18-1.14,3.08,0.03,4.24
				c0.12,0.11,11.44,11.46,5.93,17.24c-1.19,1.24-2.52,1.83-4.28,1.85c-4.8,0-11.17-4.67-15.17-8.67c-1.17-1.17-3.07-1.17-4.24,0
				c-1.17,1.17-1.17,3.07,0,4.24c2.45,2.45,11.08,10.43,19.41,10.43l0.16,0c3.31-0.04,6.16-1.29,8.47-3.71
				C300.22,500.08,285.21,485.12,284.56,484.49z"/>
			<path class="st24" d="M318.36,483.26c3.31-0.04,6.16-1.29,8.47-3.72c9.58-10.06-5.41-25.01-6.07-25.66
				c-0.57-0.56-1.34-0.86-2.13-0.86c-0.8,0.01-1.55,0.33-2.12,0.9c-0.56,0.57-0.87,1.33-0.86,2.13c0.01,0.8,0.33,1.55,0.9,2.11
				c0.12,0.11,11.31,11.59,5.93,17.24c-1.19,1.24-2.52,1.83-4.28,1.85c-4.79,0-11.17-4.67-15.17-8.67c-1.17-1.17-3.07-1.17-4.24,0
				c-0.57,0.57-0.88,1.32-0.88,2.12c0,0.8,0.31,1.55,0.88,2.12c2.45,2.45,11.08,10.43,19.41,10.43L318.36,483.26z"/>
			<path class="st24" d="M344.69,514.91c-0.35-0.27-8.3-6.37-15.75-3.17l-1.57-1.84c4.96-5.44,6.2-12.17,2.84-15.94
				c-1.86-2.08-4.79-2.93-8.27-2.4c-3.32,0.51-6.77,2.24-9.72,4.87c-6.21,5.53-8.23,13.43-4.51,17.6c3.12,3.5,9.36,3.35,15.08-0.28
				l1.49,1.74c-4.44,6.42,0.67,15.72,0.89,16.13c0.53,0.95,1.53,1.54,2.62,1.54c0.51,0,1.01-0.13,1.46-0.38
				c1.44-0.8,1.97-2.63,1.17-4.07c-0.04-0.08-4.24-7.85-0.21-10.81c4.3-3.17,10.74,1.69,10.8,1.74c1.3,1.01,3.19,0.78,4.21-0.52
				C346.23,517.81,345.99,515.93,344.69,514.91z"/>
		</g>
		
			<ellipse transform="matrix(0.7463 -0.6656 0.6656 0.7463 -256.0342 337.298)" class="st49" cx="314.49" cy="504.54" rx="3.33" ry="1.93"/>
	</g>
</g>
</svg>
