<?xml version="1.0" standalone="no"?><!DOCTYPE svg PUBLIC "-//W3C//DTD SVG 1.1//EN" "http://www.w3.org/Graphics/SVG/1.1/DTD/svg11.dtd"><svg t="1613323531750" class="icon" viewBox="0 0 1024 1024" version="1.1" xmlns="http://www.w3.org/2000/svg" p-id="3770" xmlns:xlink="http://www.w3.org/1999/xlink" width="200" height="200"><defs><style type="text/css"></style></defs><path d="M512 85.333333c235.648 0 426.666667 191.018667 426.666667 426.666667s-191.018667 426.666667-426.666667 426.666667S85.333333 747.648 85.333333 512 276.352 85.333333 512 85.333333z m0 85.333334c-188.202667 0-341.333333 153.130667-341.333333 341.333333s153.130667 341.333333 341.333333 341.333333 341.333333-153.130667 341.333333-341.333333-153.130667-341.333333-341.333333-341.333333z m0 117.333333c70.741333 0 138.197333 34.432 180.437333 92.117333l-68.864 50.432A137.258667 137.258667 0 0 0 512 373.333333 138.837333 138.837333 0 0 0 373.333333 512 138.837333 138.837333 0 0 0 512 650.666667c44.245333 0 85.76-21.290667 111.573333-57.216l68.864 50.432A224.725333 224.725333 0 0 1 512 736 224.256 224.256 0 0 1 288 512 224.256 224.256 0 0 1 512 288z" fill="#dfe7fe" p-id="3771"></path></svg>