<?xml version="1.0" encoding="utf-8"?>
<!-- Generator: Adobe Illustrator 24.0.0, SVG Export Plug-In . SVG Version: 6.00 Build 0)  -->
<svg version="1.1" id="图层_1" xmlns="http://www.w3.org/2000/svg" xmlns:xlink="http://www.w3.org/1999/xlink" x="0px" y="0px"
	 viewBox="0 0 500 500" style="enable-background:new 0 0 500 500;" xml:space="preserve">
<style type="text/css">
	.st0{fill:#A38688;}
	.st1{fill:#A35B73;}
</style>
<g>
	<g>
		<g>
			<polygon class="st0" points="254.26,413.1 169.97,163.24 172.74,162.3 251.86,396.84 260.36,127.71 263.27,127.8 			"/>
		</g>
		<g>
			
				<rect x="181.2" y="280.95" transform="matrix(0.4881 -0.8728 0.8728 0.4881 -81.844 425.2733)" class="st0" width="280.88" height="2.92"/>
		</g>
		<g>
			
				<rect x="324.58" y="159.59" transform="matrix(0.9993 -0.0364 0.0364 0.9993 -7.6685 12.0106)" class="st0" width="2.92" height="114.08"/>
		</g>
		<g>
			<polygon class="st0" points="311.85,298.39 310.99,295.61 424.8,260.59 425.66,263.38 			"/>
		</g>
		<g>
			
				<rect x="381.87" y="262.77" transform="matrix(0.5104 -0.8599 0.8599 0.5104 -86.0187 485.4727)" class="st0" width="2.92" height="111.02"/>
		</g>
		<g>
			<polygon class="st0" points="220.32,309.98 65.66,234.11 66.94,231.49 221.6,307.36 			"/>
		</g>
		<g>
			
				<rect x="50.99" y="283.8" transform="matrix(0.9868 -0.1622 0.1622 0.9868 -44.8652 20.8951)" class="st0" width="109.12" height="2.92"/>
		</g>
		<g>
			
				<rect x="169.46" y="218.21" transform="matrix(0.1466 -0.9892 0.9892 0.1466 -38.6946 394.4912)" class="st0" width="79.65" height="2.92"/>
		</g>
	</g>
	<g>
		<g>
			<circle class="st1" cx="66.3" cy="232.8" r="29.18"/>
		</g>
		<g>
			<circle class="st1" cx="45.88" cy="297" r="14.59"/>
		</g>
		<g>
			<circle class="st1" cx="165.52" cy="151.1" r="29.18"/>
		</g>
		<g>
			<circle class="st1" cx="218.04" cy="183.2" r="23.34"/>
		</g>
		<g>
			<circle class="st1" cx="261.82" cy="116.08" r="29.18"/>
		</g>
		<g>
			<circle class="st1" cx="320.18" cy="151.1" r="23.34"/>
		</g>
		<g>
			<circle class="st1" cx="403.34" cy="140.88" r="33.56"/>
		</g>
		<g>
			<circle class="st1" cx="439.82" cy="253.23" r="29.18"/>
		</g>
		<g>
			<circle class="st1" cx="429.61" cy="348.07" r="18.97"/>
		</g>
	</g>
</g>
</svg>
