<?xml version="1.0" standalone="no"?><!DOCTYPE svg PUBLIC "-//W3C//DTD SVG 1.1//EN" "http://www.w3.org/Graphics/SVG/1.1/DTD/svg11.dtd"><svg xmlns="http://www.w3.org/2000/svg" xmlns:xlink="http://www.w3.org/1999/xlink" x="0px" y="0px" viewBox="0 0 800 800" style="enable-background:new 0 0 800 800;" xml:space="preserve" width="360" height="360"><style type="text/css">.st0{fill:url(#SVGID_1_)}.st1{fill:url(#SVGID_2_)}.st2{fill:url(#SVGID_3_)}.st3{fill:url(#SVGID_4_)}.st4{fill:url(#SVGID_5_)}.st5{fill:url(#SVGID_6_)}.st6{fill:url(#SVGID_7_)}.st7{fill:url(#SVGID_8_)}.st8{fill:url(#SVGID_9_)}.st9{fill:url(#SVGID_10_)}.st10{fill:url(#SVGID_11_)}.st11{fill:url(#SVGID_12_)}.st12{fill:#F4AFAE}.st13{fill:url(#SVGID_13_)}.st14{fill:url(#SVGID_14_)}.st15{fill:url(#SVGID_15_)}.st16{fill:#ffdbd9}.st17{fill:#FC7070}.st18{fill:#e7eefe}.st19{fill:url(#SVGID_16_)}.st20{fill:none;stroke:#2EA7E0;stroke-miterlimit:10}.st21{fill:url(#SVGID_17_)}.st22{fill:#f6807f}.st23{fill:url(#SVGID_18_)}.st24{fill:#4C2C00}.st25{fill:#F48484}.st26{fill:#F7B7B7}.st27{fill:url(#SVGID_19_)}.st28{fill:url(#SVGID_20_)}.st29{fill:url(#SVGID_21_)}.st30{fill:url(#SVGID_22_)}.st31{fill:url(#SVGID_23_)}.st32{fill:url(#SVGID_24_)}.st33{fill:url(#SVGID_25_)}.st34{fill:url(#SVGID_26_)}.st35{fill:url(#SVGID_27_)}.st36{fill:url(#SVGID_28_)}.st37{fill:url(#SVGID_29_)}.st38{fill:url(#SVGID_30_)}.st39{fill:url(#SVGID_31_)}.st40{fill:url(#SVGID_32_)}.st41{fill:url(#SVGID_33_)}.st42{fill:url(#SVGID_34_)}.st43{fill:url(#SVGID_35_)}.st44{fill:url(#SVGID_36_)}.st45{fill:url(#SVGID_37_)}.st46{fill:url(#SVGID_38_)}.st47{fill:url(#SVGID_39_)}.st48{fill:url(#SVGID_40_)}.st49{fill:#F6F5F0}.st50{fill:#F0EDE1}.st51{fill:url(#SVGID_41_)}.st52{fill:url(#SVGID_42_)}.st53{fill:url(#SVGID_43_)}.st54{fill:url(#SVGID_44_)}.st55{fill:url(#SVGID_45_)}.st56{fill:url(#SVGID_46_)}.st57{fill:url(#SVGID_47_)}.st58{fill:url(#SVGID_48_)}.st59{fill:url(#SVGID_49_)}.st60{fill:url(#SVGID_50_)}.st61{fill:url(#SVGID_51_)}.st62{fill:url(#SVGID_52_)}.st63{fill:url(#SVGID_53_)}.st64{fill:url(#SVGID_54_)}.st65{fill:url(#SVGID_55_)}.st66{fill:url(#SVGID_56_)}.st67{fill:url(#SVGID_57_)}.st68{fill:url(#SVGID_58_)}.st69{fill:url(#SVGID_59_)}.st70{fill:url(#SVGID_60_)}.st71{fill:#F79C9B}.st72{fill:url(#SVGID_61_)}.st73{fill:url(#SVGID_62_)}.st74{fill:url(#SVGID_63_)}.st75{fill:url(#SVGID_64_)}.st76{fill:url(#SVGID_65_)}.st77{fill:url(#SVGID_66_)}.st78{fill:url(#SVGID_67_)}.st79{fill:url(#SVGID_68_)}.st80{fill:url(#SVGID_69_)}.st81{fill:url(#SVGID_70_)}.st82{fill:url(#SVGID_71_)}.st83{fill:url(#SVGID_72_)}.st84{fill:url(#SVGID_73_)}.st85{fill:url(#SVGID_74_)}.st86{fill:url(#SVGID_75_)}.st87{fill:#EF6563}.st88{fill:url(#SVGID_76_)}.st89{fill:#F18C8A}.st90{fill:#F9C3C0}.st91{fill:url(#SVGID_77_)}.st92{fill:url(#SVGID_78_)}.st93{fill:url(#SVGID_79_)}.st94{fill:url(#SVGID_80_)}.st95{fill:url(#SVGID_81_)}.st96{fill:url(#SVGID_82_)}.st97{fill:url(#SVGID_83_)}.st98{fill:url(#SVGID_84_)}.st99{fill:url(#SVGID_85_)}.st100{fill:url(#SVGID_86_)}.st101{fill:url(#SVGID_87_)}.st102{fill:url(#SVGID_88_)}.st103{fill:url(#SVGID_89_)}.st104{fill:url(#SVGID_90_)}.st105{fill:url(#SVGID_91_)}.st106{fill:url(#SVGID_92_)}.st107{fill:url(#SVGID_93_)}.st108{fill:url(#SVGID_94_)}.st109{fill:url(#SVGID_95_)}.st110{fill:url(#SVGID_96_)}.st111{fill:url(#SVGID_97_)}.st112{fill:url(#SVGID_98_)}.st113{fill:url(#SVGID_99_)}.st114{fill:url(#SVGID_100_)}.st115{fill:url(#SVGID_101_)}.st116{fill:url(#SVGID_102_)}.st117{fill:url(#SVGID_103_)}.st118{fill:#F4BAD9}.st119{fill:url(#SVGID_104_)}.st120{fill:url(#SVGID_105_)}.st121{fill:url(#SVGID_106_)}.st122{fill:url(#SVGID_107_)}.st123{fill:url(#SVGID_108_)}.st124{fill:url(#SVGID_109_)}.st125{fill:url(#SVGID_110_)}.st126{fill:url(#SVGID_111_)}.st127{fill:url(#SVGID_112_)}.st128{fill:url(#SVGID_113_)}.st129{fill:url(#SVGID_114_)}.st130{fill:url(#SVGID_115_)}.st131{fill:url(#SVGID_116_)}.st132{fill:url(#SVGID_117_)}.st133{fill:url(#SVGID_118_)}.st134{fill:#F37170}.st135{fill:#F5AEAD}.st136{fill:url(#SVGID_119_)}.st137{fill:url(#SVGID_120_)}.st138{fill:url(#SVGID_121_)}.st139{fill:url(#SVGID_122_)}.st140{fill:url(#SVGID_123_)}.st141{fill:url(#SVGID_124_)}.st142{fill:url(#SVGID_125_)}.st143{fill:url(#SVGID_126_)}.st144{fill:url(#SVGID_127_)}.st145{fill:url(#SVGID_128_)}.st146{fill:url(#SVGID_129_)}.st147{fill:url(#SVGID_130_)}.st148{fill:url(#SVGID_131_)}.st149{fill:url(#SVGID_132_)}.st150{fill:url(#SVGID_133_)}.st151{fill:url(#SVGID_134_)}.st152{fill:url(#SVGID_135_)}.st153{fill:url(#SVGID_136_)}.st154{fill:url(#SVGID_137_)}.st155{fill:url(#SVGID_138_)}.st156{fill:url(#SVGID_139_)}.st157{fill:#F68382}.st158{fill:#F7F8F8}.st159{fill:#E86867}.st160{fill:#B6DFFF}.st161{fill:none;stroke:#4C2C00;stroke-width:6;stroke-linecap:round;stroke-miterlimit:10}.st162{fill:url(#SVGID_140_)}.st163{fill:url(#SVGID_141_)}.st164{fill:url(#SVGID_142_)}.st165{fill:url(#SVGID_143_)}.st166{fill:url(#SVGID_144_)}.st167{fill:url(#SVGID_145_)}.st168{fill:url(#SVGID_146_)}.st169{fill:url(#SVGID_147_)}.st170{fill:url(#SVGID_148_)}.st171{fill:url(#SVGID_149_)}.st172{fill:url(#SVGID_150_)}.st173{fill:url(#SVGID_151_)}.st174{fill:url(#SVGID_152_)}.st175{fill:url(#SVGID_153_)}.st176{fill:url(#SVGID_154_)}.st177{fill:url(#SVGID_155_)}.st178{fill:url(#SVGID_156_)}.st179{fill:#F79B9A}.st180{fill:url(#SVGID_157_)}.st181{fill:url(#SVGID_158_)}.st182{fill:url(#SVGID_159_)}.st183{fill:url(#SVGID_160_)}.st184{fill:url(#SVGID_161_)}.st185{fill:url(#SVGID_162_)}.st186{fill:url(#SVGID_163_)}.st187{fill:url(#SVGID_164_)}.st188{fill:url(#SVGID_165_)}.st189{fill:url(#SVGID_166_)}.st190{fill:url(#SVGID_167_)}.st191{fill:url(#SVGID_168_)}.st192{fill:url(#SVGID_169_)}.st193{fill:url(#SVGID_170_)}.st194{fill:url(#SVGID_171_)}.st195{fill:url(#SVGID_172_)}.st196{fill:url(#SVGID_173_)}.st197{fill:url(#SVGID_174_)}.st198{fill:url(#SVGID_175_)}.st199{fill:url(#SVGID_176_)}.st200{fill:url(#SVGID_177_)}.st201{fill:url(#SVGID_178_)}.st202{fill:url(#SVGID_179_)}.st203{fill:url(#SVGID_180_)}.st204{fill:url(#SVGID_181_)}.st205{fill:url(#SVGID_182_)}.st206{fill:url(#SVGID_183_)}.st207{fill:url(#SVGID_184_)}.st208{fill:url(#SVGID_185_)}.st209{fill:url(#SVGID_186_)}.st210{fill:url(#SVGID_187_)}.st211{fill:#EA6E6D}.st212{fill:#F47E7D}.st213{fill:#F48E8D}.st214{fill:url(#SVGID_188_)}.st215{fill:url(#SVGID_189_)}.st216{fill:url(#SVGID_190_)}.st217{fill:url(#SVGID_191_)}.st218{fill:url(#SVGID_192_)}.st219{fill:url(#SVGID_193_)}.st220{fill:url(#SVGID_194_)}.st221{fill:url(#SVGID_195_)}.st222{fill:url(#SVGID_196_)}.st223{fill:url(#SVGID_197_)}.st224{fill:url(#SVGID_198_)}.st225{fill:url(#SVGID_199_)}.st226{fill:url(#SVGID_200_)}.st227{fill:url(#SVGID_201_)}.st228{fill:url(#SVGID_202_)}.st229{fill:url(#SVGID_203_)}.st230{fill:url(#SVGID_204_)}.st231{fill:url(#SVGID_205_)}.st232{fill:url(#SVGID_206_)}.st233{fill:url(#SVGID_207_)}.st234{fill:url(#SVGID_208_)}.st235{fill:url(#SVGID_209_)}.st236{fill:url(#SVGID_210_)}.st237{fill:url(#SVGID_211_)}.st238{fill:url(#SVGID_212_)}.st239{fill:url(#SVGID_213_)}.st240{fill:url(#SVGID_214_)}.st241{fill:url(#SVGID_215_)}.st242{fill:url(#SVGID_216_)}.st243{fill:url(#SVGID_217_)}.st244{fill:url(#SVGID_218_)}.st245{fill:url(#SVGID_219_)}.st246{fill:url(#SVGID_220_)}.st247{fill:url(#SVGID_221_)}.st248{fill:url(#SVGID_222_)}.st249{fill:url(#SVGID_223_)}.st250{fill:url(#SVGID_224_)}.st251{fill:url(#SVGID_225_)}.st252{fill:url(#SVGID_226_)}</style><g><g><g><g><linearGradient id="SVGID_1_" gradientUnits="userSpaceOnUse" x1="221.5385" y1="174.7697" x2="330.2457" y2="174.7697"><stop offset="0" style="stop-color: #f0f5fd;"></stop><stop offset="1" style="stop-color: #e7eefe;"></stop></linearGradient><path class="st0" d="M232.51,175.06l64.81,37.42c10.5,6.06,23.92,2.46,29.97-8.03l0,0c6.06-10.5,2.46-23.92-8.03-29.97
								l-64.81-37.42c-10.5-6.06-23.92-2.46-29.97,8.03l0,0C218.42,155.58,222.02,169,232.51,175.06z"></path><linearGradient id="SVGID_2_" gradientUnits="userSpaceOnUse" x1="631.9194" y1="544.6701" x2="740.6265" y2="544.6701"><stop offset="0" style="stop-color:#f0f5fd"></stop><stop offset="1" style="stop-color:#e7eefe"></stop></linearGradient><path class="st1" d="M729.65,544.38l-64.81-37.42c-10.5-6.06-23.92-2.46-29.97,8.03l0,0c-6.06,10.5-2.46,23.92,8.03,29.97
								l64.81,37.42c10.5,6.06,23.92,2.46,29.97-8.03C743.74,563.86,740.15,550.44,729.65,544.38z"></path><linearGradient id="SVGID_3_" gradientUnits="userSpaceOnUse" x1="31.4086" y1="282.6735" x2="115.2555" y2="282.6735"><stop offset="0" style="stop-color:#f0f5fd"></stop><stop offset="1" style="stop-color:#e7eefe"></stop></linearGradient><path class="st2" d="M39.71,282.42l50.65,29.24c7.94,4.58,18.09,1.86,22.67-6.07l0,0c4.58-7.94,1.86-18.09-6.07-22.67
								L56.3,253.68c-7.94-4.58-18.09-1.86-22.67,6.07C29.05,267.69,31.77,277.84,39.71,282.42z"></path><linearGradient id="SVGID_4_" gradientUnits="userSpaceOnUse" x1="479.1509" y1="134.1131" x2="562.9977" y2="134.1131"><stop offset="0" style="stop-color:#f0f5fd"></stop><stop offset="1" style="stop-color:#e7eefe"></stop></linearGradient><path class="st3" d="M487.45,133.86l50.65,29.24c7.94,4.58,18.09,1.86,22.67-6.07l0,0c4.58-7.94,1.86-18.09-6.07-22.67
								l-50.65-29.24c-7.94-4.58-18.09-1.86-22.67,6.07C476.79,119.13,479.51,129.28,487.45,133.86z"></path><linearGradient id="SVGID_5_" gradientUnits="userSpaceOnUse" x1="686.273" y1="383.6015" x2="770.1199" y2="383.6015"><stop offset="0" style="stop-color:#f0f5fd"></stop><stop offset="1" style="stop-color:#e7eefe"></stop></linearGradient><path class="st4" d="M761.82,383.85l-50.65-29.24c-7.94-4.58-18.09-1.86-22.67,6.07c-4.58,7.94-1.86,18.09,6.07,22.67
								l50.65,29.24c7.94,4.58,18.09,1.86,22.67-6.07h0C772.48,398.58,769.76,388.43,761.82,383.85z"></path><linearGradient id="SVGID_6_" gradientUnits="userSpaceOnUse" x1="644.2023" y1="453.632" x2="720.5632" y2="453.632"><stop offset="0" style="stop-color:#f0f5fd"></stop><stop offset="1" style="stop-color:#e7eefe"></stop></linearGradient><path class="st5" d="M644.78,431.92L644.78,431.92c-1.19,2.06-0.48,4.7,1.58,5.89l67.74,39.11c2.06,1.19,4.7,0.48,5.89-1.58
								c1.19-2.06,0.48-4.7-1.58-5.89l-67.74-39.11C648.61,429.15,645.97,429.86,644.78,431.92z"></path><linearGradient id="SVGID_7_" gradientUnits="userSpaceOnUse" x1="149.2549" y1="256.6661" x2="225.6158" y2="256.6661"><stop offset="0" style="stop-color:#f0f5fd"></stop><stop offset="1" style="stop-color:#e7eefe"></stop></linearGradient><path class="st6" d="M151.41,240.85l67.74,39.11c2.06,1.19,4.7,0.48,5.89-1.58c1.19-2.06,0.48-4.7-1.58-5.89l-67.74-39.11
								c-2.06-1.19-4.7-0.48-5.89,1.58C148.64,237.02,149.35,239.66,151.41,240.85z"></path><linearGradient id="SVGID_8_" gradientUnits="userSpaceOnUse" x1="34.0305" y1="504.0135" x2="62.3507" y2="504.0135"><stop offset="0" style="stop-color:#f0f5fd"></stop><stop offset="1" style="stop-color:#e7eefe"></stop></linearGradient><path class="st7" d="M60.71,507.46l-8.04-4.64l4.64-8.04c0.91-1.57,0.37-3.57-1.2-4.48c-1.57-0.91-3.57-0.37-4.48,1.2
								l-4.64,8.04l-8.04-4.64c-1.57-0.91-3.57-0.37-4.48,1.2s-0.37,3.57,1.2,4.48l8.04,4.64l-4.64,8.04c-0.91,1.57-0.37,3.57,1.2,4.48
								s3.57,0.37,4.48-1.2l4.64-8.04l8.04,4.64c1.57,0.91,3.57,0.37,4.48-1.2C62.82,510.37,62.28,508.36,60.71,507.46z"></path><linearGradient id="SVGID_9_" gradientUnits="userSpaceOnUse" x1="388.5327" y1="174.7695" x2="464.8935" y2="174.7695"><stop offset="0" style="stop-color:#f0f5fd"></stop><stop offset="1" style="stop-color:#e7eefe"></stop></linearGradient><path class="st8" d="M390.69,158.95l67.74,39.11c2.06,1.19,4.7,0.48,5.89-1.58c1.19-2.06,0.48-4.7-1.58-5.89L395,151.48
								c-2.06-1.19-4.7-0.48-5.89,1.58l0,0C387.92,155.12,388.63,157.76,390.69,158.95z"></path><linearGradient id="SVGID_10_" gradientUnits="userSpaceOnUse" x1="624.9152" y1="212.5268" x2="646.6808" y2="212.5268"><stop offset="0" style="stop-color:#f0f5fd"></stop><stop offset="1" style="stop-color:#e7eefe"></stop></linearGradient><path class="st9" d="M635.8,223.41c6,0,10.88-4.88,10.88-10.88c0-6-4.88-10.88-10.88-10.88s-10.88,4.88-10.88,10.88
								C624.92,218.53,629.8,223.41,635.8,223.41z M635.8,204.64c4.35,0,7.88,3.54,7.88,7.88s-3.54,7.88-7.88,7.88
								s-7.88-3.54-7.88-7.88S631.45,204.64,635.8,204.64z"></path><linearGradient id="SVGID_11_" gradientUnits="userSpaceOnUse" x1="94.9259" y1="150.9034" x2="115.2555" y2="150.9034"><stop offset="0" style="stop-color:#f0f5fd"></stop><stop offset="1" style="stop-color:#e7eefe"></stop></linearGradient><path class="st10" d="M105.09,161.07c5.6,0,10.17-4.56,10.17-10.16s-4.56-10.16-10.17-10.16c-5.6,0-10.16,4.56-10.16,10.16
								S99.49,161.07,105.09,161.07z M105.09,143.74c3.95,0,7.17,3.21,7.17,7.16s-3.21,7.16-7.17,7.16s-7.16-3.21-7.16-7.16
								S101.14,143.74,105.09,143.74z"></path><linearGradient id="SVGID_12_" gradientUnits="userSpaceOnUse" x1="711.1804" y1="270.3158" x2="729.946" y2="270.3158"><stop offset="0" style="stop-color:#f0f5fd"></stop><stop offset="1" style="stop-color:#e7eefe"></stop></linearGradient><path class="st11" d="M720.56,279.7c5.18,0,9.38-4.2,9.38-9.38c0-5.18-4.2-9.38-9.38-9.38s-9.38,4.2-9.38,9.38
								C711.18,275.5,715.38,279.7,720.56,279.7z"></path><g><path class="st12" d="M697.84,616.96H76.39c-2.76,0-5,2.24-5,5s2.24,5,5,5h621.45c2.76,0,5-2.24,5-5
									S700.6,616.96,697.84,616.96z"></path></g><g><path class="st12" d="M734.61,616.96h-15.06c-2.76,0-5,2.24-5,5s2.24,5,5,5h15.06c2.76,0,5-2.24,5-5
									S737.37,616.96,734.61,616.96z"></path></g><g><path class="st12" d="M476.48,652.45H323.29c-2.76,0-5,2.24-5,5c0,2.76,2.24,5,5,5h153.19c2.76,0,5-2.24,5-5
									C481.48,654.69,479.24,652.45,476.48,652.45z"></path></g><g><path class="st12" d="M508.2,653.03h-14.87c-2.76,0-5,2.24-5,5s2.24,5,5,5h14.87c2.76,0,5-2.24,5-5S510.96,653.03,508.2,653.03
									z"></path></g><g><path class="st12" d="M680.22,653.03H526.07c-2.76,0-5,2.24-5,5s2.24,5,5,5h154.15c2.76,0,5-2.24,5-5
									S682.98,653.03,680.22,653.03z"></path></g><g><path class="st12" d="M199.97,686.41h-15.32c-2.76,0-5,2.24-5,5s2.24,5,5,5h15.32c2.76,0,5-2.24,5-5
									S202.73,686.41,199.97,686.41z"></path></g><g><path class="st12" d="M401.44,686.41H300c-2.65-3.92-6.67-8.17-15.78-8.17c-7.07,0-12.19,4.35-15.01,8.17h-53.67
									c-2.76,0-5,2.24-5,5s2.24,5,5,5h56.43c1.89,0,3.63-1.07,4.47-2.76c0.03-0.05,2.84-5.41,7.78-5.41c5.17,0,6.32,1.83,8.59,5.48
									l0.21,0.34c0.91,1.46,2.52,2.35,4.24,2.35h104.17c2.76,0,5-2.24,5-5S404.2,686.41,401.44,686.41z"></path></g><linearGradient id="SVGID_13_" gradientUnits="userSpaceOnUse" x1="79.7715" y1="417.6589" x2="197.3107" y2="417.6589"><stop offset="0" style="stop-color:#f0f5fd"></stop><stop offset="1" style="stop-color:#e7eefe"></stop></linearGradient><path class="st13" d="M148.17,461.04l-52.02-30.03c-15.67-9.04-21.03-29.08-11.99-44.74l0,0c9.04-15.67,29.08-21.03,44.74-11.99
								l52.02,30.03c15.67,9.04,21.03,29.08,11.99,44.74l0,0C183.87,464.72,163.84,470.09,148.17,461.04z"></path></g></g><linearGradient id="SVGID_14_" gradientUnits="userSpaceOnUse" x1="396.9684" y1="180.261" x2="396.9684" y2="608.4313"><stop offset="0.2961" style="stop-color:#FBEAE6"></stop><stop offset="1" style="stop-color:#F9C8C5"></stop></linearGradient><path class="st14" d="M636.57,608.43c26.32-42.79,41.51-93.15,41.51-147.06c0-155.25-125.86-281.11-281.11-281.11
						c-155.25,0-281.11,125.86-281.11,281.11c0,53.92,15.19,104.28,41.51,147.06H636.57z"></path><linearGradient id="SVGID_15_" gradientUnits="userSpaceOnUse" x1="396.9681" y1="243.8357" x2="396.9681" y2="608.4313"><stop offset="0.2263" style="stop-color:#FFDBD9"></stop><stop offset="1" style="stop-color:#F79C9B"></stop></linearGradient><path class="st15" d="M557.24,608.43c35.55-38.72,57.26-90.36,57.26-147.06c0-120.14-97.39-217.53-217.53-217.53
						s-217.53,97.39-217.53,217.53c0,56.71,21.71,108.34,57.26,147.06H557.24z"></path></g><g><path class="st17" d="M432.95,567.37H291.86c-15.02,0-27.19-12.17-27.19-27.19V344.64c0-15.02,12.17-27.19,27.19-27.19h141.09
						c15.02,0,27.19,12.17,27.19,27.19v195.54C460.14,555.19,447.97,567.37,432.95,567.37z"></path><linearGradient id="SVGID_16_" gradientUnits="userSpaceOnUse" x1="220.2226" y1="481.6755" x2="415.6934" y2="481.6755"><stop offset="0" style="stop-color:#F79C9B"></stop><stop offset="1" style="stop-color:#F67C7B"></stop></linearGradient><path class="st19" d="M388.5,606.64H247.41c-15.02,0-27.19-12.17-27.19-27.19V383.91c0-15.02,12.17-27.19,27.19-27.19H388.5
						c15.02,0,27.19,12.17,27.19,27.19v195.54C415.69,594.46,403.52,606.64,388.5,606.64z"></path><rect x="243.79" y="386" class="st16" width="35.7" height="35.7" rx="20" ry="20"></rect><rect x="299.48" y="386" class="st16" width="81.76" height="10" rx="5" ry="5"></rect><rect x="299.48" y="403.85" class="st16" width="47.13" height="10" rx="5" ry="5"></rect><rect x="243.79" y="447.85" class="st16" width="35.7" height="35.7" rx="20" ry="20"></rect><rect x="299.48" y="447.85" class="st16" width="81.76" height="10" rx="5" ry="5"></rect><rect x="299.48" y="465.7" class="st16" width="47.13" height="10" rx="5" ry="5"></rect><rect x="243.79" y="512.11" class="st16" width="35.7" height="35.7" rx="20" ry="20"></rect><rect x="299.48" y="512.11" class="st16" width="70.76" height="10" rx="5" ry="5"></rect><rect x="299.48" y="529.97" class="st16" width="47.13" height="10" rx="5" ry="5"></rect></g><g><path class="st16" d="M578.12,344.51c0,0,34.04-22.02,76.5-13.86c42.46,8.15,56.92,47.85,54.72,61.28
						c-2.2,13.43-10.07,15.92-34.96,10.98c-24.89-4.94-68.27-17.45-74.31-20.68C594.05,379,578.12,344.51,578.12,344.51z"></path><linearGradient id="SVGID_17_" gradientUnits="userSpaceOnUse" x1="1637.6295" y1="345.5506" x2="1637.6295" y2="405.2519" gradientTransform="matrix(-1 0 0 1 2283.4871 0)"><stop offset="0.2961" style="stop-color: #ffdbd9;"></stop><stop offset="1" style="stop-color: #fdcbc9;"></stop></linearGradient><path class="st21" d="M628.45,346.2c10.43,1.33,26.17,6.07,33.13,19.53c6.95,13.46,18.12,37.92,34.96,36.03
						c5.31-0.76,12.44-2.75,12.81-16.15c0.29,2.46,0.28,4.61,0,6.33c-2.2,13.43-10.07,15.92-34.96,10.98
						c-24.89-4.94-68.27-17.45-74.31-20.68c-4.11-2.19-12.8-18.88-17.93-29.3C588.65,350.22,607.59,343.44,628.45,346.2z"></path><path class="st16" d="M526.69,318.7c0,0,5.67-38.11,30.38-61.06c11.35-9.86,39.17-20.1,58.75-6.07s23.06,34.51,10.25,48.92
						c-5.31,5.31-8.97,7.02-13.54,5.88c-4.58-1.14-4.54-8.72-4.54-8.72s-32.61,9.1-44.33,33.56C539.5,322.69,526.69,318.7,526.69,318.7
						z"></path><linearGradient id="SVGID_18_" gradientUnits="userSpaceOnUse" x1="1713.5508" y1="261.9886" x2="1713.5508" y2="331.219" gradientTransform="matrix(-1 0 0 1 2283.4871 0)"><stop offset="0.2961" style="stop-color: #ffdbd9;"></stop><stop offset="1" style="stop-color: #ffdbd9;"></stop></linearGradient><g><ellipse transform="matrix(0.6699 -0.7425 0.7425 0.6699 -106.0768 556.8821)" class="st24" cx="573.19" cy="397.73" rx="18.76" ry="13.1"></ellipse><ellipse class="st16" cx="575.7" cy="397.76" rx="5.63" ry="5.84"></ellipse><ellipse class="st16" cx="562.48" cy="399.81" rx="2.98" ry="3.09"></ellipse><ellipse transform="matrix(0.6699 -0.7425 0.7425 0.6699 -87.0997 510.0099)" class="st24" cx="529.97" cy="352.95" rx="18.76" ry="13.1"></ellipse><ellipse class="st16" cx="529.94" cy="350.35" rx="5.63" ry="5.84"></ellipse><ellipse class="st16" cx="527.96" cy="364.05" rx="2.98" ry="3.09"></ellipse><ellipse transform="matrix(0.7261 -0.6876 0.6876 0.7261 -149.879 505.453)" class="st22" cx="559.44" cy="440.83" rx="8.38" ry="18.22"></ellipse><ellipse transform="matrix(0.7261 -0.6876 0.6876 0.7261 -118.7174 436.4095)" class="st22" cx="488.36" cy="367.2" rx="8.38" ry="18.22"></ellipse><ellipse transform="matrix(0.7405 -0.6721 0.6721 0.7405 -136.7411 454.2494)" class="st24" cx="519.82" cy="404.19" rx="7.75" ry="11.37"></ellipse><ellipse transform="matrix(0.6706 -0.7418 0.7418 0.6706 -148.8769 511.3603)" class="st25" cx="501.36" cy="423.32" rx="9.95" ry="6.89"></ellipse><path class="st26" d="M501.78,422.87c1.92,1.98,1.94,5.33,0.32,8.29c-2.91,1.31-5.87,1.16-7.66-0.69
							c-1.78-1.85-1.93-4.92-0.67-7.93C496.64,420.86,499.87,420.89,501.78,422.87z"></path><ellipse transform="matrix(0.7476 -0.6641 0.6641 0.7476 -137.3799 449.4256)" class="st16" cx="522.61" cy="405.46" rx="2.13" ry="2.9"></ellipse></g></g><linearGradient id="SVGID_19_" gradientUnits="userSpaceOnUse" x1="345.0143" y1="559.4435" x2="473.4896" y2="559.4435"><stop offset="0.2961" style="stop-color:#FBEAE6"></stop><stop offset="1" style="stop-color:#F9C8C5"></stop></linearGradient><path class="st27" d="M471.32,618.46l-18.91-24.65c12.4-11.64,20.16-28.17,20.16-46.48c0-35.17-28.61-63.78-63.78-63.78
					c-35.17,0-63.78,28.61-63.78,63.78c0,35.17,28.61,63.78,63.78,63.78c9.31,0,18.16-2.01,26.15-5.61l19.74,25.74
					c2.07,2.69,5.18,4.1,8.33,4.1c2.23,0,4.47-0.71,6.38-2.17C473.98,629.64,474.85,623.06,471.32,618.46z M365.99,547.33
					c0-23.6,19.2-42.8,42.8-42.8c23.6,0,42.8,19.2,42.8,42.8c0,23.6-19.2,42.8-42.8,42.8C385.19,590.13,365.99,570.93,365.99,547.33z"></path></g></svg>