<?xml version="1.0" standalone="no"?><!DOCTYPE svg PUBLIC "-//W3C//DTD SVG 1.1//EN" "http://www.w3.org/Graphics/SVG/1.1/DTD/svg11.dtd"><svg t="1613403942567" viewBox="0 0 1024 1024" version="1.1" xmlns="http://www.w3.org/2000/svg" p-id="5217" width="30" height="30"><path d="M819.254849 195.681728c-9.475815-9.643638-24.090675-12.103666-36.184107-6.070252l-106.845447 53.128011c-15.443737 7.67582-21.73707 26.423813-14.056134 41.872666 7.67582 15.438621 26.418696 21.742187 41.872666 14.056134l85.276199-42.401716c42.828434 52.614311 157.594271 220.701564 37.887912 389.368008-32.509415 45.802162-85.795015 76.43074-146.192593 84.030835-17.115819 2.155083-29.245068 17.776875-27.089985 34.888602 1.987261 15.794731 15.438621 27.339672 30.948873 27.339672 1.301645 0 2.617617-0.081864 3.939729-0.248663 77.717036-9.780761 146.725736-49.823755 189.33109-109.85499C1051.780717 437.133895 821.59822 198.071148 819.254849 195.681728z" p-id="5218" fill="#515151"></path><path d="M670.907173 665.074328C793.359063 463.426725 492.367871 91.810009 479.496725 76.092026c-8.972349-10.959609-24.182772-14.518668-37.069267-8.65717-4.244674 1.926886-105.117083 48.176233-199.620433 134.967948C114.148783 320.56397 60.375066 456.873472 87.307462 596.60491c19.561521 101.492532 110.556978 178.695868 237.467413 201.480804 12.508895 2.245134 25.416879 3.820002 38.541805 4.828982 0.864694 32.04381 5.383614 85.37239 23.883967 136.478348 4.600785 12.70844 16.59291 20.61348 29.367865 20.61348 3.533476 0 7.122211-0.604774 10.630105-1.87572 16.22145-5.871731 24.609491-23.780613 18.73776-39.996946-15.282055-42.216497-19.235087-87.713714-20.097734-115.331725C520.392134 795.338137 616.900142 754.006799 670.907173 665.074328zM335.811232 736.600361c-79.068823-14.198374-169.764452-61.536518-187.165774-151.819754-47.322795-245.539252 219.029482-407.434479 298.04714-449.561949 86.160335 111.557772 248.620427 369.313254 170.81641 497.43426C559.058782 728.903052 433.912527 754.224764 335.811232 736.600361z" p-id="5219" fill="#515151"></path><path d="M384.261711 608.612385c-17.248849 0-31.233352 13.984503-31.233352 31.233352l0 32.540114c0 17.248849 13.984503 31.233352 31.233352 31.233352 17.248849 0 31.233352-13.984503 31.233352-31.233352l0-32.540114C415.495062 622.596887 401.51056 608.612385 384.261711 608.612385z" p-id="5220" fill="#515151"></path><path d="M288.524253 323.613422c-17.248849 0-31.233352 13.984503-31.233352 31.233352l0 31.233352c0 17.248849 13.984503 31.233352 31.233352 31.233352 17.248849 0 31.233352-13.984503 31.233352-31.233352l0-31.233352C319.756581 337.598948 305.772079 323.613422 288.524253 323.613422z" p-id="5221" fill="#515151"></path><path d="M496.745575 323.613422c-17.248849 0-31.233352 13.984503-31.233352 31.233352l0 31.233352c0 17.248849 13.984503 31.233352 31.233352 31.233352 17.248849 0 31.233352-13.984503 31.233352-31.233352l0-31.233352C527.978926 337.598948 513.9934 323.613422 496.745575 323.613422z" p-id="5222" fill="#515151"></path><path d="M469.661729 444.327738c-14.268982-9.399067-33.56649-5.393847-43.158962 8.753361-0.132006 0.198521-13.614066 19.760043-34.17638 19.760043-19.993357 0-32.42755-18.107403-33.266661-19.368116-9.17087-14.431687-28.285207-18.804275-42.833551-9.765411-14.655791 9.104355-19.155269 28.360931-10.04989 43.011606 11.209296 18.047028 41.974997 48.588625 86.151126 48.588625 43.962258 0 75.104535-30.3134 86.577844-48.222281C488.119103 472.688669 483.940944 453.731922 469.661729 444.327738z" p-id="5223" fill="#515151"></path></svg>
