<?xml version="1.0" encoding="utf-8"?>
<!-- Generator: Adobe Illustrator 22.0.1, SVG Export Plug-In . SVG Version: 6.00 Build 0)  -->
<svg version="1.1" id="图层_1" xmlns="http://www.w3.org/2000/svg" xmlns:xlink="http://www.w3.org/1999/xlink" x="0px" y="0px"
	 viewBox="0 0 371 200" style="enable-background:new 0 0 371 200;" xml:space="preserve">
<style type="text/css">
	.st0{fill:url(#路径_4_);}
	.st1{fill:url(#路径_6_);}
	.st2{fill:url(#路径_7_);}
	.st3{fill:url(#形状结合_2_);}
	.st4{display:none;opacity:0.51;fill:url(#形状结合_3_);enable-background:new    ;}
	.st5{display:none;opacity:0.5;fill:url(#路径_8_);enable-background:new    ;}
	.st6{fill:#E6EEEE;}
	.st7{fill:#CCCACA;}
	.st8{display:none;fill:#FFFFFF;}
	.st9{display:none;fill:url(#SVGID_1_);}
	.st10{fill:url(#SVGID_2_);}
	.st11{fill:url(#SVGID_3_);}
</style>
<title>编组 18</title>
<g id="页面-1">
	<g id="空状态图标备份" transform="translate(-535.000000, -819.000000)">
		<g id="编组-18" transform="translate(535.000000, 819.000000)">
			<g id="编组-2备份-7">
				
					<linearGradient id="路径_4_" gradientUnits="userSpaceOnUse" x1="-963.2157" y1="595.9907" x2="-962.0568" y2="593.131" gradientTransform="matrix(63.9295 0 0 -65.4068 61603.8164 38958.4453)">
					<stop  offset="0.5663" style="stop-color:#DEE9E9"/>
					<stop  offset="0.9708" style="stop-color:#FFFFFF;stop-opacity:0"/>
				</linearGradient>
				<path id="路径" class="st0" d="M73.3,159.6c-7.9-3.6-16.5-13.2-14.1-22.2c1.2-0.3,2.5,0.2,3.2,1.2c0,0,13.7,21.4,9.9,1.7
					c-1.8-9.3-4.9-18.2-5.2-27.8c-0.4-17.4,15.6-22.2,20.2-3c0.6,2.5,2.9,23.2,8.2,20.9c0.7-0.4,1.2-0.9,1.6-1.6
					c2.7-4.4,3.5-10.9,8.4-12.3c4.3-1.4,8.6,2.4,10.9,6.2c4.7,7.9,11,27.4,1.4,34C108,163.2,83.7,164.3,73.3,159.6L73.3,159.6z"/>
				
					<linearGradient id="路径_6_" gradientUnits="userSpaceOnUse" x1="-960.114" y1="594.9559" x2="-960.6537" y2="593.5632" gradientTransform="matrix(59.2575 0 0 -64.9717 57246.8203 38729.2148)">
					<stop  offset="0.6291" style="stop-color:#DEE9E9"/>
					<stop  offset="1" style="stop-color:#FFFFFF;stop-opacity:0"/>
				</linearGradient>
				<path id="路径_1_" class="st1" d="M296.9,173.1c-2.9-6.7-2.8-17.4,3.8-21.7c0.9,0.5,1.4,1.5,1.2,2.6c0,0-3.5,21,5.2,6.6
					c4.1-6.8,7.2-14.1,12.4-20.2c9.5-11.1,22.1-5.1,14.2,9.4c-1,1.9-11.2,16.1-6.6,17.6c0.6,0.2,1.3,0.1,1.9-0.1
					c4.1-1.2,8.3-4.8,12.2-3c3.4,1.6,4,6.3,3.2,10c-1.5,7.5-8.8,15.9-18.5,14.6C316,187.6,300.7,181.8,296.9,173.1L296.9,173.1z"/>
				
					<linearGradient id="路径_7_" gradientUnits="userSpaceOnUse" x1="-974.8598" y1="591.4147" x2="-974.8598" y2="588.2032" gradientTransform="matrix(370.5185 0 0 -51.8519 361389.0938 30699.6895)">
					<stop  offset="0.5087" style="stop-color:#E0EAEA"/>
					<stop  offset="1" style="stop-color:#FFFFFF;stop-opacity:0"/>
				</linearGradient>
				<path id="路径_2_" class="st2" d="M370.8,200.3c-46.6-31.9-112.3-51.9-185.3-51.9S46.8,168.3,0.2,200.3H370.8z"/>
				
					<linearGradient id="形状结合_2_" gradientUnits="userSpaceOnUse" x1="-949.6865" y1="591.9099" x2="-950.2988" y2="589.8848" gradientTransform="matrix(35.7734 0 0 -55.8532 34267.6523 33108.0586)">
					<stop  offset="0.4963" style="stop-color:#DEE9E9"/>
					<stop  offset="1" style="stop-color:#FFFFFF;stop-opacity:0"/>
				</linearGradient>
				<path id="形状结合" class="st3" d="M293.5,103.1c-3,3.7-4.8,9-3.1,13.6c1.2,3.2,4.9,3.3,4.6,7.8c-0.3,2.2-1,4.4-2.2,6.3
					c-2.1,3.6-4.6,7-7.6,10c2.5,1.9,3.7,5,3.3,8.1c-0.5,3.1-1.9,5.9-4.2,8.1c-0.7,0.8-1.5,1.4-2.5,1.8c-0.9,0.2-1.9,0.2-2.8,0
					c-4.6-0.8-9.1-2.2-13.2-4.2c-2.6-1.2-5.3-3-6.2-5.7c-1-3.1,0.6-4.1,2.4-5.1l0.5-0.3c0.9-0.5,1.8-1.1,2.3-1.9
					c1.3-2.1,1.3-5,1.8-7.3c0.7-3.5-0.3-9.9,4-11.2c1.7-0.5,3.5-0.4,5.2-1c3.7-1.2,5.2-4.6,6.7-8.1l0.3-0.6c0.8-2,1.7-4,3-5.5
					C287.6,105.6,292.2,104.6,293.5,103.1z M282.8,123.8c0,0-13.3,15.5-12.9,29.8h4.3C274.2,153.6,275.8,136.3,282.8,123.8z"/>
			</g>
			<g id="网络缺省页" transform="translate(122.000000, 60.000000)">
				
					<linearGradient id="形状结合_3_" gradientUnits="userSpaceOnUse" x1="-1336.7084" y1="540.5455" x2="-1336.7084" y2="539.5455" gradientTransform="matrix(144 0 0 -99 192558 53525)">
					<stop  offset="0" style="stop-color:#E9E9E9"/>
					<stop  offset="1" style="stop-color:#CCCCCC"/>
				</linearGradient>
				<path id="形状结合_1_" class="st4" d="M66.3,103.1c3-3.3,9.4-3.3,12.4,0l0,0l-6.2,6.9L66.3,103.1z M65.3,77.7l-0.1,0.4
					l-3.5,19c-0.6,0.4-1.1,0.9-1.6,1.4l0,0L47.7,85.7C52.5,80.9,59,78.9,65.3,77.7L65.3,77.7z M77.7,76.7c6.4,1.2,13.7,2.7,18.7,7.9
					l0,0L83.5,98.5c-3.6-3.8-9.3-6.5-14.1-6l0,0l6.4-11.7L77.7,76.7z M72.5,44.3L70,60.8c-12.1,0.8-23.5,6.1-32,14.8l0,0L24.9,62
					c9.3-9.5,22-14.1,34-16.8l0,0L58.5,47h7.2L72.5,44.3z M92.9,46.4c9.8,3.1,20.5,7.3,28.3,15.1l0,0l-13.1,13.1
					c-6.4-6.4-15-11.6-23.1-13.8l0,0L92.9,46.4z M94,13.1c17.8,4,36.1,11.6,50,25.5l0,0l-13.1,13.1c-9.3-9.2-20.9-17.2-32.5-21.2
					l0,0l3.8-6.1L93.5,25h-4.4L94,13.1z M65.3,11l-4.1,17c-18.3,2.2-35.4,10.6-48.4,23.6l0,0L0,38.8C17.9,20.9,41.9,12.4,65.3,11
					L65.3,11z"/>
				
					<linearGradient id="路径_8_" gradientUnits="userSpaceOnUse" x1="-180" y1="860.5" x2="-149" y2="860.5" gradientTransform="matrix(1 0 0 1 244 -822)">
					<stop  offset="0" style="stop-color:#E9E9E9"/>
					<stop  offset="1" style="stop-color:#CCCCCC"/>
				</linearGradient>
				<polygon id="路径_5_" class="st5" points="74.8,0.9 93.1,0 83.9,28.4 95,27.3 70.6,77 79.5,38.9 64,38.1 				"/>
				<path id="路径_3_" class="st6" d="M70.7,76"/>
			</g>
		</g>
	</g>
</g>
<g id="编组-10">
	<path id="矩形_3_" class="st7" d="M222.6,48.3"/>
	<ellipse id="椭圆形_1_" class="st8" cx="222.1" cy="-11.7" rx="7.5" ry="7"/>
	<ellipse id="椭圆形备份-4" class="st8" cx="200.1" cy="-11.7" rx="7.5" ry="7"/>
	<ellipse id="椭圆形备份-6" class="st8" cx="244.1" cy="-11.7" rx="7.5" ry="7"/>
</g>
<g id="评价">
	
		<linearGradient id="SVGID_1_" gradientUnits="userSpaceOnUse" x1="228.9284" y1="1064.6536" x2="206.6342" y2="938.217" gradientTransform="matrix(1 0 0 1 0 -822)">
		<stop  offset="0.1887" style="stop-color:#FFFFFF"/>
		<stop  offset="1" style="stop-color:#BBCBE0"/>
	</linearGradient>
	<polygon class="st9" points="127.9,130.1 120.4,134.9 137.3,155.8 128.4,160.8 190.1,249.5 311.8,204.9 253.9,156.9 192.7,124.4 	
		"/>
	
		<linearGradient id="SVGID_2_" gradientUnits="userSpaceOnUse" x1="117.3" y1="102.35" x2="214" y2="102.35" gradientTransform="matrix(1 0 0 -1 0 202)">
		<stop  offset="1.198948e-03" style="stop-color:#E9F0F1"/>
		<stop  offset="0.9987" style="stop-color:#CFDCDC"/>
	</linearGradient>
	<path class="st10" d="M207,63.4h-82.7c-3.9,0-7,3.3-7,7.4v57.7c0,4.1,3.1,7.4,7,7.4h48.1c0-47.2,41.6-27.4,41.6-31.5V70.8
		C214,66.7,210.8,63.4,207,63.4z M156.1,106.2h-23.6c-2.2,0-4-1.8-4-4s1.8-4,4-4h23.6c2.2,0,4,1.8,4,4S158.3,106.2,156.1,106.2z
		 M187.6,85.3h-55.1c-2.2,0-4-1.8-4-4s1.8-4,4-4h55.1c2.2,0,4,1.8,4,4C191.5,83.5,189.8,85.3,187.6,85.3z"/>
	
		<linearGradient id="SVGID_3_" gradientUnits="userSpaceOnUse" x1="165.2" y1="69.2496" x2="259.4" y2="69.2496" gradientTransform="matrix(1 0 0 -1 0 202)">
		<stop  offset="1.198948e-03" style="stop-color:#E9F0F1"/>
		<stop  offset="0.9987" style="stop-color:#CFDCDC"/>
	</linearGradient>
	<path class="st11" d="M252.5,93.1H172c-3.8,0-6.8,3.3-6.8,7.4v55.2c0,4.1,3,7.4,6.8,7.4h57.8c0.1,0,0.3,0,0.4,0.1l16.6,9.1
		c0.6,0.3,1.3-0.1,1.3-0.8l0.1-7.4c0-0.5,0.4-0.9,0.9-0.9h3.5c3.8,0,6.8-3.3,6.8-7.4v-55.2C259.3,96.4,256.3,93.1,252.5,93.1z
		 M240.4,138.1h-32.9c-2.2,0-4-1.8-4-4s1.8-4,4-4h32.9c2.2,0,4,1.8,4,4S242.6,138.1,240.4,138.1z M240.4,117.2h-55.1
		c-2.2,0-4-1.8-4-4s1.8-4,4-4h55.1c2.2,0,4,1.8,4,4C244.4,115.4,242.6,117.2,240.4,117.2z"/>
</g>
</svg>
