<?xml version="1.0" standalone="no"?><!DOCTYPE svg PUBLIC "-//W3C//DTD SVG 1.1//EN" "http://www.w3.org/Graphics/SVG/1.1/DTD/svg11.dtd"><svg t="1613752701899" class="icon" viewBox="0 0 1024 1024" version="1.1" xmlns="http://www.w3.org/2000/svg" p-id="2868" xmlns:xlink="http://www.w3.org/1999/xlink" width="22" height="22"><defs><style type="text/css"></style></defs><path d="M513 865.88a13.73 13.73 0 0 1-13.73-13.74V264.23a13.73 13.73 0 0 1 27.46 0v587.91A13.73 13.73 0 0 1 513 865.88zM418.47 454.24a13.5 13.5 0 0 1-3.54-0.46L212.45 400a13.74 13.74 0 1 1 7.05-26.55L422 427.23a13.73 13.73 0 0 1-3.51 27z" fill="#3585F9" p-id="2869"></path><path d="M559.57 326.12v511.12l315-93 1-508-308.37 80a10.18 10.18 0 0 0-7.63 9.88z" fill="#BAD4FF" p-id="2870"></path><path d="M418.47 639.47a13.48 13.48 0 0 1-3.54-0.45l-202.48-53.81a13.74 13.74 0 0 1 7.05-26.55l202.5 53.8a13.74 13.74 0 0 1-3.51 27zM607.88 454.24a13.73 13.73 0 0 1-3.51-27l202.49-53.84a13.74 13.74 0 1 1 7.06 26.6l-202.49 53.78a13.57 13.57 0 0 1-3.55 0.46zM607.88 639.47a13.74 13.74 0 0 1-3.51-27l202.49-53.8a13.74 13.74 0 1 1 7.06 26.55L611.43 639a13.56 13.56 0 0 1-3.55 0.47z" fill="#3585F9" p-id="2871"></path><path d="M884.8 170.49c-5-3.89-13.75-7.81-27.27-4.46L521.22 250.2h-0.05a13.57 13.57 0 0 1-6.21 0L168.46 166c-13.52-3.35-22.28 0.57-27.25 4.46-5.62 4.37-12.3 13.38-12.3 31.4l0.59 342.35h0.08a13.72 13.72 0 0 0 27.44-0.11c0-0.11-0.06-0.19-0.06-0.3l-0.59-342c0-6.41 1.35-9.31 1.45-9.58a3.65 3.65 0 0 1 0.78-0.08 13.61 13.61 0 0 1 3.29 0.51l346.61 84.29a41.44 41.44 0 0 0 19.4-0.08l336.3-84.17c2.4-0.61 3.69-0.48 3.62-0.61 0.47 0.48 1.81 3.38 1.81 9.76l-0.81 528.5c0 2.07 0 5.21-12.58 9.29L516.68 837.9a12.47 12.47 0 0 1-7.31 0l-339.21-98.14c-13-4.21-13-7.35-13-9.44l-0.03-76.32H157a13.73 13.73 0 1 0-27.46 0c0 0.18 0.1 0.34 0.11 0.53v75.81c0 25.19 24.09 33 32.4 35.68l339.65 98.27a40.89 40.89 0 0 0 11.3 1.59 41.37 41.37 0 0 0 11.29-1.59l340-98.41c7.91-2.54 32-10.35 32-35.51l0.8-528.5c0-18-6.67-27.01-12.29-31.38z" fill="#3585F9" p-id="2872"></path></svg>