<?xml version="1.0" standalone="no"?><!DOCTYPE svg PUBLIC "-//W3C//DTD SVG 1.1//EN" "http://www.w3.org/Graphics/SVG/1.1/DTD/svg11.dtd"><svg t="1613752721032" class="icon" viewBox="0 0 1024 1024" version="1.1" xmlns="http://www.w3.org/2000/svg" p-id="3164" xmlns:xlink="http://www.w3.org/1999/xlink" width="22" height="22"><defs><style type="text/css"></style></defs><path d="M822.51 125.9H231.05a69 69 0 0 0-68.91 68.92V541.1h27.57V194.82a41.39 41.39 0 0 1 41.34-41.35h64.28V527a13.81 13.81 0 0 0 7.33 12.2 14 14 0 0 0 6.45 1.59 13.73 13.73 0 0 0 7.75-2.4L417 470.23l106.27 68.33A13.8 13.8 0 0 0 544.55 527V153.47h278a13.79 13.79 0 0 1 13.78 13.78v555.92H231.05a68.2 68.2 0 0 0-41.34 14.14v-86h-27.57v176.07a69 69 0 0 0 68.91 68.92h591.46a41.4 41.4 0 0 0 41.35-41.3V167.25a41.4 41.4 0 0 0-41.35-41.35zM517 501.7l-92.69-59.6a13.92 13.92 0 0 0-15.21 0.22l-86.19 58.6V153.47H517z m319.29 352.49A13.8 13.8 0 0 1 822.51 868H231.05a41.39 41.39 0 0 1-41.34-41.35v-34.56a41.39 41.39 0 0 1 41.34-41.35h605.24z" fill="#3585F9" p-id="3165"></path><path d="M353.89 485.91a12.7 12.7 0 0 0 19.85 10.5l60.34-41.09c4.59-3.07 10.56 6.82 15.21 9.78l72.81 50a12.7 12.7 0 0 0 19.9-10.51V193.17a12.69 12.69 0 0 0-12.7-12.7H366.59a12.7 12.7 0 0 0-12.7 12.7z" fill="#BAD4FF" p-id="3166"></path><path d="M822.51 125.9H231.05a69 69 0 0 0-68.91 68.92V541.1h27.57V194.82a41.39 41.39 0 0 1 41.34-41.35h64.28V527a13.81 13.81 0 0 0 7.33 12.2 14 14 0 0 0 6.45 1.59 13.73 13.73 0 0 0 7.75-2.4L417 470.23l106.27 68.33A13.8 13.8 0 0 0 544.55 527V153.47h278a13.79 13.79 0 0 1 13.78 13.78v555.92H231.05a68.2 68.2 0 0 0-41.34 14.14v-86h-27.57v176.07a69 69 0 0 0 68.91 68.92h591.46a41.4 41.4 0 0 0 41.35-41.3V167.25a41.4 41.4 0 0 0-41.35-41.35zM517 501.7l-92.69-59.6a13.92 13.92 0 0 0-15.21 0.22l-86.19 58.6V153.47H517z m319.29 352.49A13.8 13.8 0 0 1 822.51 868H231.05a41.39 41.39 0 0 1-41.34-41.35v-34.56a41.39 41.39 0 0 1 41.34-41.35h605.24z" fill="#3585F9" p-id="3167"></path><path d="M189.71 652.25c0 7.61-6.18 67.37-13.79 67.37s-13.78-59.76-13.78-67.37a13.79 13.79 0 0 1 27.57 0z" fill="#3585F9" p-id="3168"></path><path d="M175.92 540.69m-13.78 0a13.78 13.78 0 1 0 27.56 0 13.78 13.78 0 1 0-27.56 0Z" fill="#3585F9" p-id="3169"></path></svg>