<?xml version="1.0" standalone="no"?><!DOCTYPE svg PUBLIC "-//W3C//DTD SVG 1.1//EN" "http://www.w3.org/Graphics/SVG/1.1/DTD/svg11.dtd"><svg t="1613754949689" class="icon" viewBox="0 0 1024 1024" version="1.1" xmlns="http://www.w3.org/2000/svg" p-id="1857" xmlns:xlink="http://www.w3.org/1999/xlink" width="128" height="128"><defs><style type="text/css"></style></defs><path d="M513.024 606.208l-3.584 3.584c16.384 16.896 36.352 34.816 58.368 54.784l18.944 17.408 18.944-17.408c68.096-61.44 112.64-102.4 112.64-152.064 0-40.448-31.744-72.704-72.704-72.704-7.168 0-14.336 1.024-21.504 3.072 0.512 3.584 1.024 7.168 1.024 11.264 0.512 50.176-44.032 90.624-112.128 152.064zM366.08 478.208c-2.56-7.68-3.584-15.872-3.584-24.064 0-37.376 27.136-67.584 62.976-71.68 41.984-40.448 98.304-65.536 161.28-65.536 25.6 0 50.176 4.096 73.216 11.776-41.984-43.008-100.864-70.144-165.888-70.144-128 0-231.936 103.936-231.936 231.936 0 102.912 66.56 189.44 159.232 220.16-40.96-41.984-66.048-98.816-66.048-162.304-0.512-24.064 3.584-47.616 10.752-70.144z" fill="#DCCBFF" p-id="1858"></path><path d="M659.968 329.216a230.912 230.912 0 0 0-73.216-11.776c-62.976 0-119.808 25.088-161.28 65.536-27.136 26.112-47.616 58.88-59.392 95.744-7.168 22.528-11.264 46.08-11.264 71.168 0 62.976 25.088 120.32 66.048 162.304 41.984 43.008 100.864 70.144 165.888 70.144 128 0 232.448-103.936 232.448-231.936 0-103.936-67.072-190.464-159.232-221.184z m-13.824 110.592c40.448 0 72.704 31.744 72.704 72.704 0 49.664-44.544 90.624-112.64 152.064l-18.944 17.408-18.944-17.408c-22.016-19.968-41.984-37.888-58.368-54.784-33.792-34.304-54.272-64-54.272-97.28 0-40.448 31.744-72.704 72.704-72.704 23.04 0 45.056 10.752 59.392 27.648 9.728-11.264 23.04-19.968 37.888-24.064 6.144-2.048 13.312-3.584 20.48-3.584z" fill="#A87DFF" p-id="1859"></path><path d="M96.768 435.2h65.536v65.536H96.768z" fill="#F7E2FF" p-id="1860"></path><path d="M235.52 270.848m-32.768 0a32.768 32.768 0 1 0 65.536 0 32.768 32.768 0 1 0-65.536 0Z" fill="#F7E2FF" p-id="1861"></path><path d="M904.704 601.6m-32.768 0a32.768 32.768 0 1 0 65.536 0 32.768 32.768 0 1 0-65.536 0Z" fill="#F7E2FF" p-id="1862"></path><path d="M875.52 284.16l-49.664-49.664c-3.584-3.584-9.216-3.584-12.8 0l-49.664 49.664c-3.584 3.584-3.584 9.216 0 12.8l49.664 49.664c3.584 3.584 9.216 3.584 12.8 0L875.52 296.96c3.584-3.584 3.584-9.216 0-12.8zM819.2 327.68l-36.864-36.864 36.864-36.864 36.864 36.864L819.2 327.68zM217.088 625.664c-30.72 0-56.32 25.088-56.32 56.32 0 30.72 25.088 56.32 56.32 56.32s56.32-25.088 56.32-56.32c-0.512-31.232-25.6-56.32-56.32-56.32z m0 89.088c-17.92 0-32.768-14.848-32.768-32.768 0-17.92 14.848-32.768 32.768-32.768s32.768 14.848 32.768 32.768c0 17.92-14.848 32.768-32.768 32.768z" fill="#EAB3FF" p-id="1863"></path></svg>