<?xml version="1.0" standalone="no"?><!DOCTYPE svg PUBLIC "-//W3C//DTD SVG 1.1//EN" "http://www.w3.org/Graphics/SVG/1.1/DTD/svg11.dtd"><svg t="1613754960602" class="icon" viewBox="0 0 1024 1024" version="1.1" xmlns="http://www.w3.org/2000/svg" p-id="1992" xmlns:xlink="http://www.w3.org/1999/xlink" width="128" height="128"><defs><style type="text/css"></style></defs><path d="M740.352 261.12c-3.072-3.072-8.192-4.096-12.8-2.56L240.128 455.68c-4.096 1.536-7.168 5.632-7.168 10.24 0 4.608 2.56 8.704 6.656 10.752l163.328 76.8 136.192-99.84c5.12-4.096 12.288 2.56 8.192 8.192l-99.84 136.192 76.8 163.328c2.048 4.096 6.144 6.656 10.752 6.656h0.512c4.608 0 8.704-3.072 10.24-7.168l197.12-487.424c1.536-4.096 0.512-9.216-2.56-12.288z" fill="#AAD4FF" p-id="1993"></path><path d="M833.024 318.976c-3.072-3.072-8.192-4.096-12.8-2.56L332.8 513.536c-4.096 1.536-7.168 5.632-7.168 10.24 0 4.608 2.56 8.704 6.656 10.752l163.328 76.8 136.192-99.84c5.12-4.096 12.288 2.56 8.192 8.192l-99.84 136.192 76.8 163.328c2.048 4.096 6.144 6.656 10.752 6.656h0.512c4.608 0 8.704-3.072 10.24-7.168l197.12-487.424c2.048-4.096 1.024-8.704-2.56-12.288z" fill="#2B95FF" p-id="1994"></path><path d="M866.304 208.384h-29.696v-29.696c0-6.656-5.12-11.776-11.776-11.776-6.656 0-11.776 5.12-11.776 11.776v29.696H783.36c-6.656 0-11.776 5.12-11.776 11.776s5.12 11.776 11.776 11.776h29.696V261.12c0 6.656 5.12 11.776 11.776 11.776 6.656 0 11.776-5.12 11.776-11.776v-29.696h29.696c6.656 0 11.776-5.12 11.776-11.776s-5.632-11.264-11.776-11.264zM335.872 803.328c-20.48 0-30.72-16.384-38.4-28.672-7.68-12.288-11.264-17.408-18.432-17.408-6.656 0-10.752 5.12-18.432 17.408-7.168 12.288-17.408 28.672-38.4 28.672-20.48 0-30.72-16.384-38.4-28.672-7.68-12.288-11.264-17.408-18.432-17.408-6.656 0-11.776-5.12-11.776-11.776s5.12-11.776 11.776-11.776c20.48 0 30.72 16.384 38.4 28.672 7.68 12.288 11.264 17.408 18.432 17.408 6.656 0 10.752-5.12 18.432-17.408 7.168-12.288 17.408-28.672 38.4-28.672 20.48 0 30.72 16.384 38.4 28.672 7.68 12.288 11.264 17.408 18.432 17.408s10.752-5.632 18.432-17.408c7.168-12.288 17.408-28.672 38.4-28.672 6.656 0 11.776 5.12 11.776 11.776s-5.12 11.776-11.776 11.776c-7.168 0-10.752 5.12-18.432 17.408-7.168 11.776-17.408 28.672-38.4 28.672z" fill="#A8D4FF" p-id="1995"></path><path d="M226.87232 272.46592l46.34112-46.34112 46.34112 46.336-46.336 46.34624zM836.608 776.704l34.816-35.328h-69.632z" fill="#D9EDFF" p-id="1996"></path><path d="M121.856 617.472m-32.768 0a32.768 32.768 0 1 0 65.536 0 32.768 32.768 0 1 0-65.536 0Z" fill="#D9EDFF" p-id="1997"></path></svg>